#N canvas -154 68 1920 1026 10;
#X obj 1411 473 bng 15 250 50 0 empty empty empty 17 7 0 10 #fcfcfc
#000000 #000000;
#X obj 1411 495 f;
#X obj 1445 496 + 1;
#X floatatom 1466 425 5 0 0 0 - - - 0;
#X obj 1717 404 tgl 15 0 empty empty empty 17 7 0 10 #ff8300 #000000
#000000 0 1;
#X obj 1733 404 tgl 15 0 empty empty empty 17 7 0 10 #ff8300 #ff0400
#000000 0 1;
#X obj 1411 425 loadbang;
#X obj 1765 404 tgl 15 0 empty empty empty 17 7 0 10 #ff8300 #000000
#000000 0 1;
#X obj 1749 404 tgl 15 0 empty empty empty 17 7 0 10 #ff8300 #000000
#000000 0 1;
#X obj 1781 404 tgl 15 0 empty empty empty 17 7 0 10 #ff8300 #000000
#000000 0 1;
#X obj 1813 404 tgl 15 0 empty empty empty 17 7 0 10 #ff8300 #000000
#000000 0 1;
#X obj 1829 404 tgl 15 0 empty empty empty 17 7 0 10 #ff8300 #000000
#000000 0 1;
#X obj 1797 404 tgl 15 0 empty empty empty 17 7 0 10 #ff8300 #000000
#000000 0 1;
#X obj 1718 382 tgl 15 0 empty empty empty 17 7 0 10 #9c00ff #000000
#000000 0 1;
#X obj 1734 382 tgl 15 0 empty empty empty 17 7 0 10 #9c00ff #000000
#000000 0 1;
#X obj 1766 382 tgl 15 0 empty empty empty 17 7 0 10 #9c00ff #000000
#000000 0 1;
#X obj 1750 382 tgl 15 0 empty empty empty 17 7 0 10 #9c00ff #000000
#000000 0 1;
#X obj 1782 382 tgl 15 0 empty empty empty 17 7 0 10 #9c00ff #000000
#000000 0 1;
#X obj 1814 382 tgl 15 0 empty empty empty 17 7 0 10 #9c00ff #000000
#000000 0 1;
#X obj 1830 382 tgl 15 0 empty empty empty 17 7 0 10 #9c00ff #000000
#000000 0 1;
#X obj 1798 382 tgl 15 0 empty empty empty 17 7 0 10 #9c00ff #000000
#000000 0 1;
#X obj 1868 378 tgl 15 0 empty empty empty 17 7 0 10 #00ff04 #000000
#000000 0 1;
#X obj 1884 378 tgl 15 0 empty empty empty 17 7 0 10 #00ff04 #000000
#000000 0 1;
#X obj 1918 378 tgl 15 0 empty empty empty 17 7 0 10 #00ff04 #000000
#000000 0 1;
#X obj 1901 378 tgl 15 0 empty empty empty 17 7 0 10 #00ff04 #000000
#000000 0 1;
#X obj 1935 378 tgl 15 0 empty empty empty 17 7 0 10 #00ff04 #000000
#000000 0 1;
#X obj 1966 378 tgl 15 0 empty empty empty 17 7 0 10 #00ff04 #000000
#000000 0 1;
#X obj 1982 378 tgl 15 0 empty empty empty 17 7 0 10 #00ff04 #000000
#000000 0 1;
#X obj 1951 378 tgl 15 0 empty empty empty 17 7 0 10 #00ff04 #000000
#000000 0 1;
#X obj 1866 402 tgl 15 0 empty empty empty 17 7 0 10 #0400ff #000000
#000000 0 1;
#X obj 1882 402 tgl 15 0 empty empty empty 17 7 0 10 #0400ff #000000
#000000 0 1;
#X obj 1915 402 tgl 15 0 empty empty empty 17 7 0 10 #0400ff #000000
#000000 0 1;
#X obj 1898 402 tgl 15 0 empty empty empty 17 7 0 10 #0400ff #000000
#000000 0 1;
#X obj 1933 402 tgl 15 0 empty empty empty 17 7 0 10 #0400ff #000000
#000000 0 1;
#X obj 1964 402 tgl 15 0 empty empty empty 17 7 0 10 #0400ff #000000
#000000 0 1;
#X obj 1980 402 tgl 15 0 empty empty empty 17 7 0 10 #0400ff #000000
#000000 0 1;
#X obj 1951 402 tgl 15 0 empty empty empty 17 7 0 10 #0400ff #000000
#000000 0 1;
#N canvas -91 90 1920 1026 sequencer 1;
#X obj 19 191 select 0 1 2 3 4 5 6 7;
#X obj 67 215 bng 15 250 50 0 empty empty empty 17 7 0 10 #fcfcfc #000000
#000000;
#X obj 36 214 bng 15 250 50 0 empty empty empty 17 7 0 10 #fcfcfc #000000
#000000;
#X obj 51 215 bng 15 250 50 0 empty empty empty 17 7 0 10 #fcfcfc #000000
#000000;
#X obj 21 214 bng 15 250 50 0 empty empty empty 17 7 0 10 #fcfcfc #000000
#000000;
#X obj 82 215 bng 15 250 50 0 empty empty empty 17 7 0 10 #fcfcfc #000000
#000000;
#X obj 97 216 bng 15 250 50 0 empty empty empty 17 7 0 10 #fcfcfc #000000
#000000;
#X obj 113 216 bng 15 250 50 0 empty empty empty 17 7 0 10 #fcfcfc
#000000 #000000;
#X obj 306 259 spigot;
#X obj 51 264 spigot;
#X obj 129 218 bng 15 250 50 0 empty empty empty 17 7 0 10 #fcfcfc
#000000 #000000;
#X obj 134 261 spigot;
#X obj 93 262 spigot;
#X obj 180 261 spigot;
#X obj 265 260 spigot;
#X obj 222 261 spigot;
#X obj 10 287 spigot;
#X obj 306 284 spigot;
#X obj 54 287 spigot;
#X obj 138 286 spigot;
#X obj 96 287 spigot;
#X obj 180 286 spigot;
#X obj 265 285 spigot;
#X obj 222 286 spigot;
#X obj 9 263 spigot;
#X obj 665 219 spigot;
#X obj 413 222 spigot;
#X obj 495 222 spigot;
#X obj 456 221 spigot;
#X obj 538 220 spigot;
#X obj 624 220 spigot;
#X obj 581 221 spigot;
#X obj 367 248 spigot;
#X obj 665 244 spigot;
#X obj 413 247 spigot;
#X obj 501 246 spigot;
#X obj 456 246 spigot;
#X obj 539 246 spigot;
#X obj 624 245 spigot;
#X obj 581 246 spigot;
#X obj 366 225 spigot;
#X obj 15 142 inlet;
#X obj 128 139 inlet;
#X obj 166 139 inlet;
#X obj 206 139 inlet;
#X obj 88 139 inlet;
#X obj 270 407 outlet~;
#X obj 61 404 outlet~;
#X obj 685 408 outlet~;
#X obj 473 412 outlet~;
#X obj 245 138 inlet;
#X obj 283 138 inlet;
#X obj 320 138 inlet;
#X obj 359 138 inlet;
#X obj 445 138 inlet;
#X obj 483 138 inlet;
#X obj 523 138 inlet;
#X obj 405 138 inlet;
#X obj 562 137 inlet;
#X obj 600 137 inlet;
#X obj 637 137 inlet;
#X obj 676 137 inlet;
#X obj 762 137 inlet;
#X obj 800 137 inlet;
#X obj 840 137 inlet;
#X obj 722 137 inlet;
#X obj 879 136 inlet;
#X obj 917 136 inlet;
#X obj 954 136 inlet;
#X obj 993 136 inlet;
#X obj 1075 136 inlet;
#X obj 1113 136 inlet;
#X obj 1153 136 inlet;
#X obj 1035 136 inlet;
#X obj 1192 135 inlet;
#X obj 1230 135 inlet;
#X obj 1267 135 inlet;
#X obj 1306 135 inlet;
#X obj -38 330 s bang;
#X obj 1402 136 inlet;
#X obj 1440 136 inlet;
#X obj 1480 136 inlet;
#X obj 1362 136 inlet;
#X obj 1519 135 inlet;
#X obj 1557 135 inlet;
#X obj 1594 135 inlet;
#X obj 1633 135 inlet;
#X obj 1719 135 inlet;
#X obj 1757 135 inlet;
#X obj 1797 135 inlet;
#X obj 1679 135 inlet;
#X obj 1836 134 inlet;
#X obj 1874 134 inlet;
#X obj 1911 134 inlet;
#X obj 1950 135 inlet;
#X obj 2036 134 inlet;
#X obj 2074 134 inlet;
#X obj 2114 134 inlet;
#X obj 1996 134 inlet;
#X obj 2153 133 inlet;
#X obj 2191 133 inlet;
#X obj 2228 133 inlet;
#X obj 2267 133 inlet;
#X obj 2349 133 inlet;
#X obj 2387 133 inlet;
#X obj 2427 133 inlet;
#X obj 2309 133 inlet;
#X obj 2466 132 inlet;
#X obj 2504 132 inlet;
#X obj 2541 132 inlet;
#X obj 2580 132 inlet;
#X obj 1589 198 spigot;
#X obj 1337 200 spigot;
#X obj 1419 200 spigot;
#X obj 1380 199 spigot;
#X obj 1462 201 spigot;
#X obj 1548 198 spigot;
#X obj 1505 199 spigot;
#X obj 1643 198 spigot;
#X obj 1941 194 spigot;
#X obj 1689 197 spigot;
#X obj 1777 196 spigot;
#X obj 1732 196 spigot;
#X obj 1818 195 spigot;
#X obj 1900 195 spigot;
#X obj 1857 196 spigot;
#X obj 1291 201 spigot;
#X obj -4 238 s b1;
#X obj 27 236 s b2;
#X obj 56 237 s b3;
#X obj 88 237 s b4;
#X obj 118 237 s b5;
#X obj 154 236 s b6;
#X obj 190 237 s b7;
#X obj 224 237 s b8;
#X obj 1291 176 r b1;
#X obj 1338 175 r b2;
#X obj 1381 174 r b3;
#X obj 1419 174 r b4;
#X obj 1462 176 r b5;
#X obj 1505 175 r b6;
#X obj 1547 171 r b7;
#X obj 1589 170 r b8;
#X obj 1649 169 r b1;
#X obj 1696 168 r b2;
#X obj 1739 167 r b3;
#X obj 1777 167 r b4;
#X obj 1820 169 r b5;
#X obj 1863 168 r b6;
#X obj 1905 164 r b7;
#X obj 1947 163 r b8;
#X obj 2291 191 spigot;
#X obj 2039 193 spigot;
#X obj 2121 193 spigot;
#X obj 2082 192 spigot;
#X obj 2164 194 spigot;
#X obj 2250 191 spigot;
#X obj 2207 192 spigot;
#X obj 2345 191 spigot;
#X obj 2643 187 spigot;
#X obj 2391 190 spigot;
#X obj 2479 189 spigot;
#X obj 2434 189 spigot;
#X obj 2520 188 spigot;
#X obj 2602 188 spigot;
#X obj 2559 189 spigot;
#X obj 1993 194 spigot;
#X obj 1993 169 r b1;
#X obj 2040 168 r b2;
#X obj 2083 167 r b3;
#X obj 2121 167 r b4;
#X obj 2164 169 r b5;
#X obj 2207 168 r b6;
#X obj 2249 164 r b7;
#X obj 2291 163 r b8;
#X obj 2351 162 r b1;
#X obj 2398 161 r b2;
#X obj 2441 160 r b3;
#X obj 2479 160 r b4;
#X obj 2522 162 r b5;
#X obj 2565 161 r b6;
#X obj 2607 157 r b7;
#X obj 2649 156 r b8;
#X obj 508 530 bp~, f 6;
#X obj 503 556 bp~, f 6;
#X floatatom 541 504 5 0 0 0 - - - 0;
#X msg 480 495 72;
#X obj 480 471 loadbang;
#N canvas -536 245 1920 1026 vspigot 0;
#X obj 86 47 inlet~;
#X obj 217 38 inlet;
#X obj 141 211 outlet~;
#X obj 224 213 outlet~;
#X obj 191 98 == 0;
#X obj 243 98 == 1;
#X obj 147 51 inlet~;
#X obj 147 157 *~ 0.001;
#X obj 223 155 *~ 0.001;
#X connect 0 0 7 0;
#X connect 1 0 4 0;
#X connect 1 0 5 0;
#X connect 4 0 7 1;
#X connect 5 0 8 1;
#X connect 6 0 8 0;
#X connect 7 0 2 0;
#X connect 8 0 3 0;
#X restore 836 657 pd vspigot;
#X obj 877 633 tgl 15 0 empty empty empty 17 7 0 10 #fcfcfc #000000
#000000 0 1;
#X obj 901 731 loadbang;
#X obj 902 778 s bela_setDigital;
#X obj 465 583 env~ 4096 2048;
#X msg 76 561 175;
#X msg 154 553 209;
#X msg 241 535 250;
#X msg 350 541 297;
#X obj 278 577 osc~;
#X obj 77 333 dynamic-load-file A.wav \$0 0;
#X obj 269 346 dynamic-load-file B.wav \$0 1;
#X obj 464 343 dynamic-load-file C.wav \$0 2;
#X obj 662 342 dynamic-load-file D.wav \$0 3;
#X obj 877 607 r bela_digitalIn18;
#X msg 900 756 in 18;
#X obj 1772 564 bp~, f 6;
#X obj 1772 594 bp~, f 6;
#X floatatom 1849 548 5 0 0 0 - - - 0;
#X msg 1788 539 72;
#X obj 1788 515 loadbang;
#X obj 1773 627 env~ 4096 2048;
#X msg 1393 490 175;
#X msg 1425 489 209;
#X msg 1458 489 250;
#X msg 1500 496 297;
#X obj 1428 524 osc~;
#X obj 1446 400 outlet~;
#X obj 1205 393 outlet~;
#X obj 1851 436 outlet~;
#X obj 1619 419 outlet~;
#X obj 1223 330 dynamic-load-file kick.wav \$0 4;
#X obj 1228 355 readsf-wrapper \$0 4 0.01;
#X obj 304 365 readsf-wrapper \$0 1 0.001;
#X obj 75 366 readsf-wrapper \$0 0 0.001;
#X obj 486 373 readsf-wrapper \$0 2 0.001;
#X obj 662 370 readsf-wrapper \$0 3 0.001;
#X obj 1451 349 readsf-wrapper \$0 5 0.01;
#X obj 1644 362 readsf-wrapper \$0 6 0.01;
#X obj 1872 356 readsf-wrapper \$0 7 0.01;
#X obj 278 668 dac~ 3;
#X obj 464 606 * 0.08;
#X obj 462 636 expr if( $f1>0.01 \, $f1 \, 0);
#X obj 1430 623 dac~ 4;
#X obj 279 642 *~ 0.001;
#X obj 1768 676 expr if( $f1>0.01 \, $f1 \, 0);
#X obj 1772 648 * 0.08;
#X obj 1429 552 *~ 0.005;
#X obj 1430 591 *~ 0.001;
#X obj 278 605 *~ 0.001;
#X obj 1429 329 dynamic-load-file tom.wav \$0 5;
#X obj 1623 328 dynamic-load-file rim.wav \$0 6;
#X obj 2114 414 dynamic-load-file bell.wav \$0 7;
#X connect 0 0 4 0;
#X connect 0 1 2 0;
#X connect 0 2 3 0;
#X connect 0 3 1 0;
#X connect 0 4 5 0;
#X connect 0 5 6 0;
#X connect 0 6 7 0;
#X connect 0 7 10 0;
#X connect 1 0 11 0;
#X connect 1 0 19 0;
#X connect 1 0 27 0;
#X connect 1 0 35 0;
#X connect 1 0 130 0;
#X connect 2 0 9 0;
#X connect 2 0 18 0;
#X connect 2 0 26 0;
#X connect 2 0 34 0;
#X connect 2 0 128 0;
#X connect 3 0 12 0;
#X connect 3 0 20 0;
#X connect 3 0 28 0;
#X connect 3 0 36 0;
#X connect 3 0 129 0;
#X connect 4 0 16 0;
#X connect 4 0 24 0;
#X connect 4 0 40 0;
#X connect 4 0 32 0;
#X connect 4 0 127 0;
#X connect 5 0 13 0;
#X connect 5 0 21 0;
#X connect 5 0 29 0;
#X connect 5 0 37 0;
#X connect 5 0 131 0;
#X connect 6 0 15 0;
#X connect 6 0 23 0;
#X connect 6 0 31 0;
#X connect 6 0 39 0;
#X connect 6 0 132 0;
#X connect 7 0 14 0;
#X connect 7 0 22 0;
#X connect 7 0 30 0;
#X connect 7 0 38 0;
#X connect 7 0 133 0;
#X connect 8 0 193 0;
#X connect 8 0 198 0;
#X connect 9 0 193 0;
#X connect 9 0 198 0;
#X connect 10 0 8 0;
#X connect 10 0 25 0;
#X connect 10 0 33 0;
#X connect 10 0 134 0;
#X connect 10 0 17 0;
#X connect 11 0 193 0;
#X connect 11 0 198 0;
#X connect 12 0 193 0;
#X connect 12 0 198 0;
#X connect 13 0 193 0;
#X connect 13 0 198 0;
#X connect 14 0 193 0;
#X connect 14 0 198 0;
#X connect 15 0 193 0;
#X connect 15 0 198 0;
#X connect 16 0 194 0;
#X connect 16 0 199 0;
#X connect 17 0 194 0;
#X connect 17 0 199 0;
#X connect 18 0 194 0;
#X connect 18 0 199 0;
#X connect 19 0 194 0;
#X connect 19 0 199 0;
#X connect 20 0 194 0;
#X connect 20 0 199 0;
#X connect 21 0 194 0;
#X connect 21 0 199 0;
#X connect 22 0 194 0;
#X connect 22 0 199 0;
#X connect 23 0 194 0;
#X connect 23 0 199 0;
#X connect 24 0 78 0;
#X connect 24 0 193 0;
#X connect 24 0 198 0;
#X connect 25 0 32 1;
#X connect 25 0 195 0;
#X connect 25 0 200 0;
#X connect 26 0 32 1;
#X connect 26 0 195 0;
#X connect 26 0 200 0;
#X connect 27 0 32 1;
#X connect 27 0 195 0;
#X connect 27 0 200 0;
#X connect 28 0 32 1;
#X connect 28 0 195 0;
#X connect 28 0 200 0;
#X connect 29 0 32 1;
#X connect 29 0 195 0;
#X connect 29 0 200 0;
#X connect 30 0 32 1;
#X connect 30 0 195 0;
#X connect 30 0 200 0;
#X connect 31 0 32 1;
#X connect 31 0 195 0;
#X connect 31 0 200 0;
#X connect 32 0 196 0;
#X connect 32 0 201 0;
#X connect 33 0 196 0;
#X connect 33 0 201 0;
#X connect 34 0 196 0;
#X connect 34 0 201 0;
#X connect 35 0 196 0;
#X connect 35 0 201 0;
#X connect 36 0 196 0;
#X connect 36 0 201 0;
#X connect 37 0 196 0;
#X connect 37 0 201 0;
#X connect 38 0 196 0;
#X connect 38 0 201 0;
#X connect 39 0 196 0;
#X connect 39 0 201 0;
#X connect 40 0 32 1;
#X connect 40 0 195 0;
#X connect 40 0 200 0;
#X connect 41 0 0 0;
#X connect 42 0 9 1;
#X connect 43 0 12 1;
#X connect 44 0 11 1;
#X connect 45 0 24 1;
#X connect 50 0 13 1;
#X connect 51 0 15 1;
#X connect 52 0 14 1;
#X connect 53 0 8 1;
#X connect 54 0 18 1;
#X connect 55 0 20 1;
#X connect 56 0 19 1;
#X connect 57 0 16 1;
#X connect 58 0 21 1;
#X connect 59 0 23 1;
#X connect 60 0 22 1;
#X connect 61 0 17 1;
#X connect 62 0 26 1;
#X connect 63 0 28 1;
#X connect 64 0 27 1;
#X connect 65 0 40 1;
#X connect 66 0 29 1;
#X connect 67 0 31 1;
#X connect 68 0 30 1;
#X connect 69 0 25 1;
#X connect 70 0 34 1;
#X connect 71 0 36 1;
#X connect 72 0 35 1;
#X connect 73 0 32 1;
#X connect 74 0 37 1;
#X connect 75 0 39 1;
#X connect 76 0 38 1;
#X connect 77 0 33 1;
#X connect 79 0 112 1;
#X connect 80 0 114 1;
#X connect 81 0 113 1;
#X connect 82 0 126 1;
#X connect 83 0 115 1;
#X connect 84 0 117 1;
#X connect 85 0 116 1;
#X connect 86 0 111 1;
#X connect 87 0 120 1;
#X connect 88 0 122 1;
#X connect 89 0 121 1;
#X connect 90 0 118 1;
#X connect 91 0 123 1;
#X connect 92 0 125 1;
#X connect 93 0 124 1;
#X connect 94 0 119 1;
#X connect 95 0 152 1;
#X connect 96 0 153 0;
#X connect 97 0 153 1;
#X connect 98 0 166 1;
#X connect 99 0 155 1;
#X connect 100 0 157 1;
#X connect 101 0 156 1;
#X connect 102 0 151 1;
#X connect 103 0 160 1;
#X connect 104 0 162 1;
#X connect 105 0 161 1;
#X connect 106 0 158 1;
#X connect 107 0 163 1;
#X connect 108 0 165 1;
#X connect 109 0 164 1;
#X connect 110 0 159 1;
#X connect 111 0 210 0;
#X connect 111 0 219 0;
#X connect 112 0 210 0;
#X connect 112 0 219 0;
#X connect 113 0 210 0;
#X connect 113 0 219 0;
#X connect 114 0 210 0;
#X connect 114 0 219 0;
#X connect 115 0 210 0;
#X connect 115 0 219 0;
#X connect 116 0 210 0;
#X connect 116 0 219 0;
#X connect 117 0 210 0;
#X connect 117 0 219 0;
#X connect 118 0 211 0;
#X connect 118 0 238 0;
#X connect 119 0 211 0;
#X connect 119 0 238 0;
#X connect 120 0 211 0;
#X connect 120 0 238 0;
#X connect 121 0 211 0;
#X connect 121 0 238 0;
#X connect 122 0 211 0;
#X connect 122 0 238 0;
#X connect 123 0 211 0;
#X connect 123 0 238 0;
#X connect 124 0 211 0;
#X connect 124 0 238 0;
#X connect 125 0 211 0;
#X connect 125 0 238 0;
#X connect 126 0 210 0;
#X connect 126 0 219 0;
#X connect 135 0 126 0;
#X connect 136 0 112 0;
#X connect 137 0 114 0;
#X connect 138 0 113 0;
#X connect 139 0 115 0;
#X connect 140 0 117 0;
#X connect 141 0 116 0;
#X connect 142 0 111 0;
#X connect 143 0 118 0;
#X connect 144 0 120 0;
#X connect 145 0 122 0;
#X connect 146 0 121 0;
#X connect 147 0 123 0;
#X connect 148 0 125 0;
#X connect 149 0 124 0;
#X connect 150 0 119 0;
#X connect 151 0 212 0;
#X connect 151 0 239 0;
#X connect 152 0 212 0;
#X connect 152 0 239 0;
#X connect 153 0 212 0;
#X connect 153 0 239 0;
#X connect 154 0 212 0;
#X connect 154 0 239 0;
#X connect 155 0 212 0;
#X connect 155 0 239 0;
#X connect 156 0 212 0;
#X connect 156 0 239 0;
#X connect 157 0 212 0;
#X connect 157 0 239 0;
#X connect 158 0 213 0;
#X connect 158 0 240 0;
#X connect 159 0 213 0;
#X connect 159 0 240 0;
#X connect 160 0 213 0;
#X connect 160 0 240 0;
#X connect 161 0 213 0;
#X connect 161 0 240 0;
#X connect 162 0 213 0;
#X connect 162 0 240 0;
#X connect 163 0 213 0;
#X connect 163 0 240 0;
#X connect 164 0 213 0;
#X connect 164 0 240 0;
#X connect 165 0 213 0;
#X connect 165 0 240 0;
#X connect 166 0 212 0;
#X connect 166 0 239 0;
#X connect 167 0 166 0;
#X connect 168 0 152 0;
#X connect 169 0 154 0;
#X connect 170 0 153 0;
#X connect 171 0 155 0;
#X connect 172 0 157 0;
#X connect 173 0 156 0;
#X connect 174 0 151 0;
#X connect 175 0 158 0;
#X connect 176 0 160 0;
#X connect 177 0 162 0;
#X connect 178 0 161 0;
#X connect 179 0 163 0;
#X connect 180 0 165 0;
#X connect 181 0 164 0;
#X connect 182 0 159 0;
#X connect 183 0 184 0;
#X connect 184 0 192 0;
#X connect 185 0 184 2;
#X connect 185 0 183 2;
#X connect 186 0 183 1;
#X connect 187 0 186 0;
#X connect 189 0 188 2;
#X connect 190 0 203 0;
#X connect 192 0 229 0;
#X connect 193 0 197 0;
#X connect 194 0 197 0;
#X connect 195 0 197 0;
#X connect 196 0 197 0;
#X connect 197 0 237 0;
#X connect 198 0 47 0;
#X connect 198 0 192 0;
#X connect 199 0 46 0;
#X connect 199 0 192 0;
#X connect 200 0 49 0;
#X connect 200 0 192 0;
#X connect 201 0 48 0;
#X connect 201 0 192 0;
#X connect 202 0 189 0;
#X connect 203 0 191 0;
#X connect 204 0 205 0;
#X connect 205 0 209 0;
#X connect 206 0 205 2;
#X connect 206 0 204 2;
#X connect 207 0 204 1;
#X connect 208 0 207 0;
#X connect 209 0 234 0;
#X connect 210 0 214 0;
#X connect 211 0 214 0;
#X connect 212 0 214 0;
#X connect 213 0 214 0;
#X connect 214 0 235 0;
#X connect 219 0 216 0;
#X connect 219 0 204 0;
#X connect 220 0 216 0;
#X connect 221 0 46 0;
#X connect 222 0 47 0;
#X connect 223 0 49 0;
#X connect 224 0 48 0;
#X connect 225 0 215 0;
#X connect 226 0 204 0;
#X connect 226 0 218 0;
#X connect 227 0 217 0;
#X connect 229 0 230 0;
#X connect 230 0 232 1;
#X connect 232 0 228 0;
#X connect 233 0 236 1;
#X connect 234 0 233 0;
#X connect 235 0 236 0;
#X connect 236 0 231 0;
#X connect 237 0 232 0;
#X connect 238 0 204 0;
#X connect 238 0 215 0;
#X connect 239 0 218 0;
#X connect 239 0 204 0;
#X connect 240 0 217 0;
#X connect 240 0 204 0;
#X restore 1488 537 pd sequencer;
#X f 192;
#X obj 145 158 loadbang;
#X obj 145 188 tgl 15 0 empty empty empty 17 7 0 10 #fcfcfc #000000
#000000 0 1;
#X obj 145 213 metro 200;
#X obj 145 294 tabread bela_multiplexer;
#X obj 160 344 tabread bela_multiplexer;
#N canvas 0 22 450 278 (subpatch) 0;
#X array bela_multiplexer 1 float 2;
#X coords 0 1 1 -1 200 140 1 0 0;
#X restore 250 87 graph;
#X obj 171 394 tabread bela_multiplexer;
#X obj 185 450 tabread bela_multiplexer;
#X obj 196 504 tabread bela_multiplexer;
#X obj 209 556 tabread bela_multiplexer;
#X obj 225 609 tabread bela_multiplexer;
#X obj 236 669 tabread bela_multiplexer;
#X obj 1411 524 % 8;
#X obj 250 735 tabread bela_multiplexer;
#X obj 265 799 tabread bela_multiplexer;
#X obj 276 851 tabread bela_multiplexer;
#X obj 295 914 tabread bela_multiplexer;
#X obj 305 969 tabread bela_multiplexer;
#X obj 319 1020 tabread bela_multiplexer;
#X obj 329 1079 tabread bela_multiplexer;
#X obj 343 1142 tabread bela_multiplexer;
#X obj 150 1289 print -n;
#X obj 8 687 pack f f f f f f f f;
#X obj 9 733 print -n;
#X text 1693 401 A;
#X obj 416 692 s pA8;
#X obj 421 639 s pA7;
#X obj 422 588 s pA6;
#X obj 421 535 s pA5;
#X obj 424 485 s pA4;
#X obj 419 431 s pA3;
#X obj 424 384 s pA2;
#X obj 422 335 s pA1;
#X obj 656 693 s pB8;
#X obj 660 635 s pB7;
#X obj 666 585 s pB6;
#X obj 666 532 s pB5;
#X obj 666 481 s pB4;
#X obj 670 430 s pB3;
#X obj 654 381 s pB2;
#X obj 659 334 s pB1;
#X obj 882 690 s pC8;
#X obj 891 632 s pC7;
#X obj 889 582 s pC6;
#X obj 889 533 s pC5;
#X obj 889 481 s pC4;
#X obj 892 426 s pC3;
#X obj 894 376 s pC2;
#X obj 888 333 s pC1;
#X text 1692 380 B;
#X text 2007 375 C;
#X text 2006 400 D;
#X obj 1123 693 s pD8;
#X obj 1128 632 s pD7;
#X obj 1132 580 s pD6;
#X obj 1131 535 s pD5;
#X obj 1131 482 s pD4;
#X obj 1139 431 s pD3;
#X obj 1135 375 s pD2;
#X obj 1120 331 s pD1;
#X obj 2116 396 tgl 15 0 empty empty empty 17 7 0 10 #ff8300 #000000
#000000 0 1;
#X obj 2132 396 tgl 15 0 empty empty empty 17 7 0 10 #ff8300 #ff0400
#000000 0 1;
#X obj 2164 396 tgl 15 0 empty empty empty 17 7 0 10 #ff8300 #000000
#000000 0 1;
#X obj 2148 396 tgl 15 0 empty empty empty 17 7 0 10 #ff8300 #000000
#000000 0 1;
#X obj 2180 396 tgl 15 0 empty empty empty 17 7 0 10 #ff8300 #000000
#000000 0 1;
#X obj 2212 396 tgl 15 0 empty empty empty 17 7 0 10 #ff8300 #000000
#000000 0 1;
#X obj 2228 396 tgl 15 0 empty empty empty 17 7 0 10 #ff8300 #000000
#000000 0 1;
#X obj 2196 396 tgl 15 0 empty empty empty 17 7 0 10 #ff8300 #000000
#000000 0 1;
#X obj 2116 372 tgl 15 0 empty empty empty 17 7 0 10 #9c00ff #000000
#000000 0 1;
#X obj 2132 372 tgl 15 0 empty empty empty 17 7 0 10 #9c00ff #000000
#000000 0 1;
#X obj 2164 372 tgl 15 0 empty empty empty 17 7 0 10 #9c00ff #000000
#000000 0 1;
#X obj 2148 372 tgl 15 0 empty empty empty 17 7 0 10 #9c00ff #000000
#000000 0 1;
#X obj 2180 372 tgl 15 0 empty empty empty 17 7 0 10 #9c00ff #000000
#000000 0 1;
#X obj 2212 372 tgl 15 0 empty empty empty 17 7 0 10 #9c00ff #000000
#000000 0 1;
#X obj 2228 372 tgl 15 0 empty empty empty 17 7 0 10 #9c00ff #000000
#000000 0 1;
#X obj 2196 372 tgl 15 0 empty empty empty 17 7 0 10 #9c00ff #000000
#000000 0 1;
#X obj 1411 449 metro 800;
#X obj 1447 321 tgl 15 0 empty empty empty 17 7 0 10 #fcfcfc #000000
#000000 0 1;
#X obj 1833 666 *~ 0.75;
#X obj 1895 665 *~ 0.75;
#X obj 1960 665 *~ 0.75;
#X obj 2026 665 *~ 0.75;
#X obj 1872 43 r pD1;
#X obj 1882 84 r pD2;
#X obj 1901 113 r pD3;
#X obj 1917 140 r pD4, f 6;
#X obj 1940 167 r pD5, f 6;
#X obj 1955 194 r pD6;
#X obj 1966 226 r pD7;
#X obj 1983 258 r pD8;
#X obj 1871 193 r pC1;
#X obj 1884 213 r pC2;
#X obj 1901 232 r pC3;
#X obj 1918 253 r pC4;
#X obj 1934 275 r pC5;
#X obj 1951 295 r pC6;
#X obj 1966 320 r pC7;
#X obj 1981 340 r pC8;
#X obj 145 246 t a a a a a a a a a a a a a a a a a a a a;
#X obj 364 1184 tabread bela_multiplexer;
#X obj 383 1234 tabread bela_multiplexer;
#X obj 390 1292 tabread bela_multiplexer;
#X obj 404 1354 tabread bela_multiplexer;
#X obj 78 727 s bela_guiOut;
#X obj 150 1231 pack f f f f f f f f;
#X msg 145 275 4;
#X msg 160 321 12;
#X msg 171 371 20;
#X msg 185 427 28;
#X msg 196 481 5;
#X msg 209 533 13;
#X msg 225 586 21;
#X msg 236 646 29;
#X msg 247 713 6;
#X msg 305 941 7;
#X msg 265 769 14;
#X msg 276 828 22;
#X msg 295 891 30;
#X msg 319 997 15;
#X msg 329 1056 23;
#X msg 343 1117 31;
#X msg 366 1164 1;
#X msg 382 1213 9;
#X msg 391 1273 17;
#X msg 404 1335 25;
#X obj 1826 -4 r pA8;
#X obj 1835 41 r pB8;
#X obj 1810 21 r pA7;
#X obj 1818 79 r pB7;
#X obj 1790 44 r pA6;
#X obj 1806 121 r pB6;
#X obj 1780 65 r pA5;
#X obj 1788 134 r pB5;
#X obj 1744 89 r pA4;
#X obj 1771 170 r pB4;
#X obj 1735 113 r pA3;
#X obj 1754 216 r pB3;
#X obj 1726 138 r pA2;
#X obj 1734 253 r pB2;
#X obj 1713 162 r pA1;
#X obj 1717 279 r pB1;
#X obj 425 313 expr if( $f1>0.1 == $f1<0.2 \, 1 \, 0);
#X obj 657 311 expr if( $f1>0.3 == $f1<0.4 \, 1 \, 0);
#X obj 893 309 expr if( $f1>0.5 == $f1<0.6 \, 1 \, 0);
#X obj 1125 308 expr if( $f1>0.7== $f1<0.8 \, 1 \, 0);
#X obj 422 356 expr if( $f1>0.1 == $f1<0.2 \, 1 \, 0);
#X obj 654 355 expr if( $f1>0.3 == $f1<0.4 \, 1 \, 0);
#X obj 891 352 expr if( $f1>0.5 == $f1<0.6 \, 1 \, 0);
#X obj 1123 352 expr if( $f1>0.7 == $f1<0.8 \, 1 \, 0);
#X obj 423 403 expr if( $f1>0.1 == $f1<0.2 \, 1 \, 0);
#X obj 669 400 expr if( $f1>0.3 == $f1<0.4 \, 1 \, 0);
#X obj 891 396 expr if( $f1>0.5 == $f1<0.6 \, 1 \, 0);
#X obj 1135 397 expr if( $f1>0.7 == $f1<0.8 \, 1 \, 0);
#X obj 424 455 expr if( $f1>0.1 == $f1<0.2 \, 1 \, 0);
#X obj 420 508 expr if( $f1>0.1 == $f1<0.2 \, 1 \, 0);
#X obj 422 559 expr if( $f1>0.1 == $f1<0.2 \, 1 \, 0);
#X obj 422 617 expr if( $f1>0.1 == $f1<0.2 \, 1 \, 0);
#X obj 416 658 expr if( $f1>0.1 == $f1<0.2 \, 1 \, 0);
#X obj 666 455 expr if( $f1>0.3 == $f1<0.4 \, 1 \, 0);
#X obj 662 506 expr if( $f1>0.3 == $f1<0.4 \, 1 \, 0);
#X obj 663 557 expr if( $f1>0.3 == $f1<0.4 \, 1 \, 0);
#X obj 662 607 expr if( $f1>0.3 == $f1<0.4 \, 1 \, 0);
#X obj 658 659 expr if( $f1>0.3 == $f1<0.4 \, 1 \, 0);
#X obj 890 452 expr if( $f1>0.5 == $f1<0.6 \, 1 \, 0);
#X obj 888 505 expr if( $f1>0.5 == $f1<0.6 \, 1 \, 0);
#X obj 889 556 expr if( $f1>0.5 == $f1<0.6 \, 1 \, 0);
#X obj 890 605 expr if( $f1>0.5 == $f1<0.6 \, 1 \, 0);
#X obj 884 664 expr if( $f1>0.5 == $f1<0.6 \, 1 \, 0);
#X obj 1134 452 expr if( $f1>0.7 == $f1<0.8 \, 1 \, 0);
#X obj 1130 503 expr if( $f1>0.7 == $f1<0.8 \, 1 \, 0);
#X obj 1131 554 expr if( $f1>0.7 == $f1<0.8 \, 1 \, 0);
#X obj 1130 602 expr if( $f1>0.7 == $f1<0.8 \, 1 \, 0);
#X obj 1124 665 expr if( $f1>0.7 == $f1<0.8 \, 1 \, 0);
#X obj 471 744 expr if( $f1>0.1 == $f1<0.2 \, 1 \, 0);
#X obj 703 735 expr if( $f1>0.3 == $f1<0.4 \, 1 \, 0);
#X obj 973 727 expr if( $f1>0.5 == $f1<0.6 \, 1 \, 0);
#X obj 1214 729 expr if( $f1>0.7== $f1<0.8 \, 1 \, 0);
#X obj 471 784 expr if( $f1>0.1 == $f1<0.2 \, 1 \, 0);
#X obj 700 778 expr if( $f1>0.3 == $f1<0.4 \, 1 \, 0);
#X obj 980 773 expr if( $f1>0.5 == $f1<0.6 \, 1 \, 0);
#X obj 1212 773 expr if( $f1>0.7 == $f1<0.8 \, 1 \, 0);
#X obj 472 831 expr if( $f1>0.1 == $f1<0.2 \, 1 \, 0);
#X obj 715 824 expr if( $f1>0.3 == $f1<0.4 \, 1 \, 0);
#X obj 980 817 expr if( $f1>0.5 == $f1<0.6 \, 1 \, 0);
#X obj 1224 818 expr if( $f1>0.7 == $f1<0.8 \, 1 \, 0);
#X obj 479 878 expr if( $f1>0.1 == $f1<0.2 \, 1 \, 0);
#X obj 469 936 expr if( $f1>0.1 == $f1<0.2 \, 1 \, 0);
#X obj 481 988 expr if( $f1>0.1 == $f1<0.2 \, 1 \, 0);
#X obj 480 1039 expr if( $f1>0.1 == $f1<0.2 \, 1 \, 0);
#X obj 481 1093 expr if( $f1>0.1 == $f1<0.2 \, 1 \, 0);
#X obj 716 881 expr if( $f1>0.3 == $f1<0.4 \, 1 \, 0);
#X obj 708 930 expr if( $f1>0.3 == $f1<0.4 \, 1 \, 0);
#X obj 709 981 expr if( $f1>0.3 == $f1<0.4 \, 1 \, 0);
#X obj 708 1031 expr if( $f1>0.3 == $f1<0.4 \, 1 \, 0);
#X obj 702 1092 expr if( $f1>0.3 == $f1<0.4 \, 1 \, 0);
#X obj 979 873 expr if( $f1>0.5 == $f1<0.6 \, 1 \, 0);
#X obj 977 926 expr if( $f1>0.5 == $f1<0.6 \, 1 \, 0);
#X obj 978 977 expr if( $f1>0.5 == $f1<0.6 \, 1 \, 0);
#X obj 979 1026 expr if( $f1>0.5 == $f1<0.6 \, 1 \, 0);
#X obj 973 1085 expr if( $f1>0.5 == $f1<0.6 \, 1 \, 0);
#X obj 1223 874 expr if( $f1>0.7 == $f1<0.8 \, 1 \, 0);
#X obj 1219 924 expr if( $f1>0.7 == $f1<0.8 \, 1 \, 0);
#X obj 1220 975 expr if( $f1>0.7 == $f1<0.8 \, 1 \, 0);
#X obj 1219 1023 expr if( $f1>0.7 == $f1<0.8 \, 1 \, 0);
#X obj 1213 1086 expr if( $f1>0.7 == $f1<0.8 \, 1 \, 0);
#X obj 2116 332 r pK1;
#X obj 2130 300 r pK2;
#X obj 2148 265 r pK3;
#X obj 2162 225 r pK4;
#X obj 2174 195 r pK5;
#X obj 2192 163 r pK6;
#X obj 2203 131 r pK7;
#X obj 2220 100 r pK8;
#X obj 2108 278 r pR1;
#X obj 2115 248 r pR2;
#X obj 2123 223 r pR3;
#X obj 2154 166 r pR4;
#X obj 2181 100 r pR5;
#X obj 2193 72 r pR6;
#X obj 2205 30 r pR7;
#X obj 2222 -8 r pR8;
#X obj 2425 375 tgl 15 0 empty empty empty 17 7 0 10 #00ff04 #000000
#000000 0 1;
#X obj 2441 375 tgl 15 0 empty empty empty 17 7 0 10 #00ff04 #000000
#000000 0 1;
#X obj 2475 375 tgl 15 0 empty empty empty 17 7 0 10 #00ff04 #000000
#000000 0 1;
#X obj 2458 375 tgl 15 0 empty empty empty 17 7 0 10 #00ff04 #000000
#000000 0 1;
#X obj 2492 375 tgl 15 0 empty empty empty 17 7 0 10 #00ff04 #000000
#000000 0 1;
#X obj 2523 375 tgl 15 0 empty empty empty 17 7 0 10 #00ff04 #000000
#000000 0 1;
#X obj 2539 375 tgl 15 0 empty empty empty 17 7 0 10 #00ff04 #000000
#000000 0 1;
#X obj 2508 375 tgl 15 0 empty empty empty 17 7 0 10 #00ff04 #000000
#000000 0 1;
#X obj 2423 399 tgl 15 0 empty empty empty 17 7 0 10 #0400ff #000000
#000000 0 1;
#X obj 2439 399 tgl 15 0 empty empty empty 17 7 0 10 #0400ff #000000
#000000 0 1;
#X obj 2472 399 tgl 15 0 empty empty empty 17 7 0 10 #0400ff #000000
#000000 0 1;
#X obj 2455 399 tgl 15 0 empty empty empty 17 7 0 10 #0400ff #000000
#000000 0 1;
#X obj 2490 399 tgl 15 0 empty empty empty 17 7 0 10 #0400ff #000000
#000000 0 1;
#X obj 2521 399 tgl 15 0 empty empty empty 17 7 0 10 #0400ff #000000
#000000 0 1;
#X obj 2537 399 tgl 15 0 empty empty empty 17 7 0 10 #0400ff #000000
#000000 0 1;
#X obj 2508 399 tgl 15 0 empty empty empty 17 7 0 10 #0400ff #000000
#000000 0 1;
#X text 2096 369 R;
#X text 2097 390 K;
#X obj 2425 342 r pT1;
#X obj 2440 316 r pT2;
#X obj 2455 289 r pT3;
#X obj 2473 261 r pT4;
#X obj 2492 235 r pT5;
#X obj 2508 200 r pT6;
#X obj 2522 173 r pT7;
#X obj 2540 143 r pT8;
#X obj 2422 252 r pY1;
#X obj 2439 220 r pY2;
#X obj 2454 180 r pY3;
#X obj 2473 143 r pDY4;
#X obj 2491 111 r pY5, f 6;
#X obj 2504 76 r pY6;
#X obj 2518 44 r pY7;
#X obj 2537 10 r pY8;
#X obj 2211 665 *~ 0.75;
#X obj 2273 664 *~ 0.75;
#X obj 2337 663 *~ 0.75;
#X obj 2404 664 *~ 0.75;
#X obj 726 758 s pR1;
#X obj 734 807 s pR2;
#X obj 722 854 s pR3;
#X obj 718 905 s pR4;
#X obj 706 958 s pR5;
#X obj 710 1009 s pR6;
#X obj 705 1060 s pR7;
#X obj 701 1120 s pR8;
#X obj 493 1114 s pK8;
#X obj 484 1068 s pK7;
#X obj 480 1016 s pK6;
#X obj 471 965 s pK5;
#X obj 476 913 s pK4;
#X obj 471 859 s pK3;
#X obj 472 807 s pK2;
#X obj 471 766 s pK1;
#X text 2563 372 T;
#X text 2562 397 Y;
#X obj 972 1118 s pT8;
#X obj 978 1052 s pT7;
#X obj 977 1007 s pT6;
#X obj 976 952 s pT5;
#X obj 974 901 s pT4;
#X obj 976 849 s pT3;
#X obj 980 796 s pT2;
#X obj 975 749 s pT1;
#X obj 1213 1118 s pY8;
#X obj 1219 1051 s pY7;
#X obj 1218 1001 s pY6;
#X obj 1221 948 s pY5;
#X obj 1223 903 s pY4;
#X obj 1223 848 s pY3;
#X obj 1212 796 s pY2;
#X obj 1214 754 s pY1;
#X obj 2063 799 dac~ 1 2;
#X connect 0 0 1 0;
#X connect 1 0 2 0;
#X connect 1 0 50 0;
#X connect 2 0 1 1;
#X connect 3 0 114 1;
#X connect 4 0 37 1;
#X connect 5 0 37 2;
#X connect 6 0 114 0;
#X connect 7 0 37 4;
#X connect 8 0 37 3;
#X connect 9 0 37 5;
#X connect 10 0 37 7;
#X connect 11 0 37 8;
#X connect 12 0 37 6;
#X connect 13 0 37 9;
#X connect 14 0 37 10;
#X connect 15 0 37 12;
#X connect 16 0 37 11;
#X connect 17 0 37 13;
#X connect 18 0 37 15;
#X connect 19 0 37 16;
#X connect 20 0 37 14;
#X connect 21 0 37 17;
#X connect 22 0 37 18;
#X connect 23 0 37 20;
#X connect 24 0 37 19;
#X connect 25 0 37 21;
#X connect 26 0 37 23;
#X connect 27 0 37 24;
#X connect 28 0 37 22;
#X connect 29 0 37 25;
#X connect 30 0 37 26;
#X connect 31 0 37 28;
#X connect 32 0 37 27;
#X connect 33 0 37 29;
#X connect 34 0 37 31;
#X connect 35 0 37 32;
#X connect 36 0 37 30;
#X connect 37 0 116 0;
#X connect 37 1 117 0;
#X connect 37 2 118 0;
#X connect 37 3 119 0;
#X connect 37 4 293 0;
#X connect 37 5 294 0;
#X connect 37 6 295 0;
#X connect 37 7 296 0;
#X connect 38 0 39 0;
#X connect 39 0 40 0;
#X connect 40 0 136 0;
#X connect 41 0 60 0;
#X connect 41 0 179 0;
#X connect 41 0 180 0;
#X connect 41 0 181 0;
#X connect 41 0 182 0;
#X connect 42 0 60 1;
#X connect 42 0 183 0;
#X connect 42 0 184 0;
#X connect 42 0 185 0;
#X connect 42 0 186 0;
#X connect 44 0 60 2;
#X connect 44 0 187 0;
#X connect 44 0 188 0;
#X connect 44 0 189 0;
#X connect 44 0 190 0;
#X connect 45 0 60 3;
#X connect 45 0 191 0;
#X connect 45 0 196 0;
#X connect 45 0 201 0;
#X connect 45 0 206 0;
#X connect 46 0 60 4;
#X connect 46 0 192 0;
#X connect 46 0 197 0;
#X connect 46 0 202 0;
#X connect 46 0 207 0;
#X connect 47 0 60 5;
#X connect 47 0 193 0;
#X connect 47 0 198 0;
#X connect 47 0 203 0;
#X connect 47 0 208 0;
#X connect 48 0 60 6;
#X connect 48 0 194 0;
#X connect 48 0 199 0;
#X connect 48 0 204 0;
#X connect 48 0 209 0;
#X connect 49 0 60 7;
#X connect 49 0 195 0;
#X connect 49 0 200 0;
#X connect 49 0 205 0;
#X connect 49 0 210 0;
#X connect 50 0 37 0;
#X connect 51 0 142 0;
#X connect 51 0 211 0;
#X connect 51 0 212 0;
#X connect 51 0 213 0;
#X connect 51 0 214 0;
#X connect 52 0 142 1;
#X connect 52 0 215 0;
#X connect 52 0 216 0;
#X connect 52 0 217 0;
#X connect 52 0 218 0;
#X connect 53 0 142 2;
#X connect 53 0 219 0;
#X connect 53 0 220 0;
#X connect 53 0 221 0;
#X connect 53 0 222 0;
#X connect 54 0 142 3;
#X connect 54 0 223 0;
#X connect 54 0 228 0;
#X connect 54 0 233 0;
#X connect 54 0 238 0;
#X connect 55 0 142 4;
#X connect 55 0 224 0;
#X connect 55 0 229 0;
#X connect 55 0 234 0;
#X connect 55 0 239 0;
#X connect 56 0 142 5;
#X connect 56 0 225 0;
#X connect 56 0 230 0;
#X connect 56 0 235 0;
#X connect 56 0 240 0;
#X connect 57 0 142 6;
#X connect 57 0 226 0;
#X connect 57 0 231 0;
#X connect 57 0 236 0;
#X connect 57 0 241 0;
#X connect 58 0 142 7;
#X connect 58 0 227 0;
#X connect 58 0 232 0;
#X connect 58 0 237 0;
#X connect 58 0 242 0;
#X connect 98 0 37 33;
#X connect 99 0 37 34;
#X connect 100 0 37 36;
#X connect 101 0 37 35;
#X connect 102 0 37 37;
#X connect 103 0 37 39;
#X connect 104 0 37 40;
#X connect 105 0 37 38;
#X connect 106 0 37 41;
#X connect 107 0 37 42;
#X connect 108 0 37 44;
#X connect 109 0 37 43;
#X connect 110 0 37 45;
#X connect 111 0 37 47;
#X connect 112 0 37 48;
#X connect 113 0 37 46;
#X connect 114 0 0 0;
#X connect 115 0 114 0;
#X connect 116 0 331 0;
#X connect 117 0 331 0;
#X connect 118 0 331 0;
#X connect 119 0 331 0;
#X connect 120 0 29 0;
#X connect 121 0 30 0;
#X connect 122 0 32 0;
#X connect 123 0 31 0;
#X connect 124 0 33 0;
#X connect 125 0 36 0;
#X connect 126 0 34 0;
#X connect 127 0 35 0;
#X connect 128 0 21 0;
#X connect 129 0 22 0;
#X connect 130 0 24 0;
#X connect 131 0 23 0;
#X connect 132 0 25 0;
#X connect 133 0 28 0;
#X connect 134 0 26 0;
#X connect 135 0 27 0;
#X connect 136 0 143 0;
#X connect 136 1 144 0;
#X connect 136 2 145 0;
#X connect 136 3 146 0;
#X connect 136 4 147 0;
#X connect 136 5 148 0;
#X connect 136 6 149 0;
#X connect 136 7 150 0;
#X connect 136 8 151 0;
#X connect 136 9 153 0;
#X connect 136 10 154 0;
#X connect 136 11 155 0;
#X connect 136 12 152 0;
#X connect 136 13 156 0;
#X connect 136 14 157 0;
#X connect 136 15 158 0;
#X connect 136 16 159 0;
#X connect 136 17 160 0;
#X connect 136 18 161 0;
#X connect 136 19 162 0;
#X connect 142 0 59 0;
#X connect 143 0 41 0;
#X connect 144 0 42 0;
#X connect 145 0 44 0;
#X connect 146 0 45 0;
#X connect 147 0 46 0;
#X connect 148 0 47 0;
#X connect 149 0 48 0;
#X connect 150 0 49 0;
#X connect 151 0 51 0;
#X connect 152 0 55 0;
#X connect 153 0 52 0;
#X connect 154 0 53 0;
#X connect 155 0 54 0;
#X connect 156 0 56 0;
#X connect 157 0 57 0;
#X connect 158 0 58 0;
#X connect 159 0 137 0;
#X connect 160 0 138 0;
#X connect 161 0 139 0;
#X connect 162 0 140 0;
#X connect 163 0 11 0;
#X connect 164 0 19 0;
#X connect 165 0 10 0;
#X connect 166 0 18 0;
#X connect 167 0 12 0;
#X connect 168 0 20 0;
#X connect 169 0 9 0;
#X connect 170 0 17 0;
#X connect 171 0 7 0;
#X connect 172 0 15 0;
#X connect 173 0 8 0;
#X connect 174 0 16 0;
#X connect 175 0 5 0;
#X connect 176 0 14 0;
#X connect 177 0 4 0;
#X connect 178 0 13 0;
#X connect 179 0 70 0;
#X connect 180 0 78 0;
#X connect 181 0 86 0;
#X connect 182 0 97 0;
#X connect 183 0 69 0;
#X connect 184 0 77 0;
#X connect 185 0 85 0;
#X connect 186 0 96 0;
#X connect 187 0 68 0;
#X connect 188 0 76 0;
#X connect 189 0 84 0;
#X connect 190 0 95 0;
#X connect 191 0 67 0;
#X connect 192 0 66 0;
#X connect 193 0 65 0;
#X connect 194 0 64 0;
#X connect 195 0 63 0;
#X connect 196 0 75 0;
#X connect 197 0 74 0;
#X connect 198 0 73 0;
#X connect 199 0 72 0;
#X connect 200 0 71 0;
#X connect 201 0 83 0;
#X connect 202 0 82 0;
#X connect 203 0 81 0;
#X connect 204 0 80 0;
#X connect 205 0 79 0;
#X connect 206 0 94 0;
#X connect 207 0 93 0;
#X connect 208 0 92 0;
#X connect 209 0 91 0;
#X connect 210 0 90 0;
#X connect 211 0 312 0;
#X connect 212 0 297 0;
#X connect 213 0 322 0;
#X connect 214 0 330 0;
#X connect 215 0 311 0;
#X connect 216 0 298 0;
#X connect 217 0 321 0;
#X connect 218 0 329 0;
#X connect 219 0 310 0;
#X connect 220 0 299 0;
#X connect 221 0 320 0;
#X connect 222 0 328 0;
#X connect 223 0 309 0;
#X connect 224 0 308 0;
#X connect 225 0 307 0;
#X connect 226 0 306 0;
#X connect 227 0 305 0;
#X connect 228 0 300 0;
#X connect 229 0 301 0;
#X connect 230 0 302 0;
#X connect 231 0 303 0;
#X connect 232 0 304 0;
#X connect 233 0 319 0;
#X connect 234 0 318 0;
#X connect 235 0 317 0;
#X connect 236 0 316 0;
#X connect 237 0 315 0;
#X connect 238 0 327 0;
#X connect 239 0 326 0;
#X connect 240 0 325 0;
#X connect 241 0 324 0;
#X connect 242 0 323 0;
#X connect 243 0 98 0;
#X connect 244 0 99 0;
#X connect 245 0 101 0;
#X connect 246 0 100 0;
#X connect 247 0 102 0;
#X connect 248 0 105 0;
#X connect 249 0 103 0;
#X connect 250 0 104 0;
#X connect 251 0 106 0;
#X connect 252 0 107 0;
#X connect 253 0 109 0;
#X connect 254 0 108 0;
#X connect 255 0 110 0;
#X connect 256 0 113 0;
#X connect 257 0 111 0;
#X connect 258 0 112 0;
#X connect 259 0 37 49;
#X connect 260 0 37 50;
#X connect 261 0 37 52;
#X connect 262 0 37 51;
#X connect 263 0 37 53;
#X connect 264 0 37 55;
#X connect 265 0 37 56;
#X connect 266 0 37 54;
#X connect 267 0 37 57;
#X connect 268 0 37 58;
#X connect 269 0 37 60;
#X connect 270 0 37 59;
#X connect 271 0 37 61;
#X connect 272 0 37 63;
#X connect 273 0 37 64;
#X connect 274 0 37 62;
#X connect 277 0 259 0;
#X connect 278 0 260 0;
#X connect 279 0 262 0;
#X connect 280 0 261 0;
#X connect 281 0 263 0;
#X connect 282 0 266 0;
#X connect 283 0 264 0;
#X connect 284 0 265 0;
#X connect 285 0 267 0;
#X connect 286 0 268 0;
#X connect 287 0 270 0;
#X connect 288 0 269 0;
#X connect 289 0 271 0;
#X connect 290 0 274 0;
#X connect 291 0 272 0;
#X connect 292 0 273 0;
#X connect 293 0 331 1;
#X connect 294 0 331 1;
#X connect 295 0 331 1;
#X connect 296 0 331 1;
