#N canvas 608 311 450 300 10;
#X obj 152 95 until;
#X obj 153 14 inlet;
#X obj 153 41 t b b;
#X obj 269 25 inlet;
#X obj 152 70 \$1;
#X msg 213 78 reset;
#X obj 250 263 outlet;
#X obj 249 233 bang;
#X obj 232 210 spigot;
#X obj 174 162 t b f f;
#X obj 267 180 expr if($f1==$f2-1 \, 1 \, 0);
#X obj 151 205 outlet;
#X obj 161 129 count 1e+30;
#X connect 0 0 12 0;
#X connect 1 0 2 0;
#X connect 2 0 4 0;
#X connect 2 1 5 0;
#X connect 3 0 4 1;
#X connect 3 0 10 1;
#X connect 4 0 0 0;
#X connect 5 0 12 0;
#X connect 7 0 6 0;
#X connect 8 0 7 0;
#X connect 9 0 8 0;
#X connect 9 1 11 0;
#X connect 9 2 10 0;
#X connect 10 0 8 1;
#X connect 12 0 9 0;
