#N canvas -43 89 1920 1026 10;
#X msg 174 131 1;
#X obj 268 15 bng 20 250 50 0 empty empty empty 17 7 0 10 #fcfcfc #000000
#000000;
#X obj 360 161 soundfiler;
#X obj 359 87 \$0;
#X obj 359 8 loadbang;
#X msg 359 36 bang;
#N canvas 0 23 1190 370 (subpatch) 0;
#X array \$0-table 10000 float 2;
#X coords 0 1 10000 -1 200 140 1;
#X restore 559 244 graph;
#X obj 337 247 tabplay~ \$0-table;
#X obj 435 323 bng 15 250 50 0 empty empty empty 17 7 0 10 #fcfcfc
#000000 #000000;
#X obj 238 153 timer;
#X obj 401 83 symbol \$1;
#X obj 360 111 list;
#X obj 359 58 t b b;
#X obj 159 58 symbol \$1;
#X obj 83 22 inlet;
#X obj 239 180 print duration;
#X obj 155 363 switch~;
#X obj 156 337 tgl 15 0 empty empty empty 17 7 0 10 #fcfcfc #000000
#000000 0 1;
#X msg 161 280 1;
#X msg 238 278 0;
#X obj 262 240 loadbang;
#X obj 88 195 s \$2-readsf-\$3-inlet;
#X obj 218 113 r \$2-readsf-\$3-done;
#X msg 159 87 open \$1 32768;
#X obj 318 307 *~ 0.75;
#X obj 319 336 outlet~;
#X obj 302 54 s f4;
#X msg 359 139 read -resize -maxsize 40000 \$2 \$1-table;
#X connect 0 0 21 0;
#X connect 1 0 7 0;
#X connect 1 0 9 0;
#X connect 1 0 13 0;
#X connect 1 0 18 0;
#X connect 1 0 26 0;
#X connect 3 0 11 0;
#X connect 4 0 5 0;
#X connect 5 0 12 0;
#X connect 7 0 24 0;
#X connect 7 1 8 0;
#X connect 8 0 0 0;
#X connect 8 0 19 0;
#X connect 9 0 15 0;
#X connect 10 0 11 1;
#X connect 11 0 27 0;
#X connect 12 0 3 0;
#X connect 12 1 10 0;
#X connect 13 0 23 0;
#X connect 14 0 1 0;
#X connect 17 0 16 0;
#X connect 18 0 17 0;
#X connect 19 0 17 0;
#X connect 20 0 19 0;
#X connect 23 0 21 0;
#X connect 24 0 25 0;
#X connect 27 0 2 0;
