#N canvas 297 90 1280 699 10;
#X obj 391 39 bang;
#X obj 321 39 inlet;
#X msg 327 64 bang;
#X obj 357 217 \$0;
#X obj 343 248 s main-dollar-0;
#X obj 379 66 t b b b b b b b b b;
#X obj 490 88 \$0;
#X msg 491 244 connect 0 0 1 0 \, connect 1 0 2 0;
#X obj 534 193 list;
#X obj 534 216 list trim;
#X obj 732 61 r \$0-number-of-voices;
#X obj 895 179 s \$0-number-of-voices;
#X floatatom 894 109 5 0 0 0 - - -;
#X msg 515 167 obj 0 80 select;
#X msg 492 109 clear \, obj 0 40 inlet \, obj 0 60 i;
#X obj 611 145 countToList;
#X obj 494 286 countTo;
#X obj 402 531 s pd-\$0-fileplayers;
#N canvas 648 91 582 644 \$0-fileplayers 0;
#X obj 0 40 inlet;
#X obj 0 60 i;
#X obj 0 80 select 0 1 2 3 4 5 6 7 8 9 10 11 12 13 14 15 16 17 18 19
20 21 22 23 24 25 26 27 28 29 30 31 32 33 34 35 36 37 38 39 40 41 42
43 44 45 46 47 48 49 50 51 52 53 54 55 56 57 58 59 60 61 62 63 64 65
66 67 68 69 70 71 72 73 74 75 76 77 78 79 80 81 82 83 84 85 86 87 88
89 90 91 92 93 94 95 96 97 98 99 100 101 102 103 104 105 106 107 108
109 110 111 112 113 114 115 116 117 118 119 120 121 122 123 124 125
126 127 128 129 130 131 132 133 134 135 136 137 138 139 140 141 142
143 144 145 146 147 148 149 150 151 152 153 154 155 156 157 158 159
160 161 162 163 164 165 166 167 168 169 170 171 172 173 174 175 176
177 178 179 180 181 182 183 184 185 186 187 188 189 190 191 192 193
194 195 196 197 198 199 200 201 202 203 204 205 206 207 208 209 210
211 212 213 214 215 216 217 218 219 220 221 222 223 224 225 226 227
228 229 230 231 232 233 234 235 236 237 238 239 240 241 242 243 244
245 246 247 248 249 250 251 252 253 254 255 256 257 258 259 260 261
262 263 264 265 266 267 268 269 270 271 272 273 274 275 276 277 278
279 280 281 282 283 284 285 286 287 288 289 290 291 292 293 294 295
296 297 298 299 300 301 302 303 304 305 306 307 308 309 310 311 312
313 314 315 316 317 318 319 320 321 322 323 324 325 326 327 328 329
330 331 332 333 334 335 336 337 338 339 340 341 342 343 344 345 346
347 348 349 350 351 352 353 354 355 356 357 358 359 360 361 362 363
364 365 366 367 368 369 370 371 372 373 374 375 376 377 378 379 380
381 382 383 384 385 386 387 388 389 390 391 392 393 394 395 396 397
398 399 400 401 402 403 404 405 406 407 408 409 410 411 412 413 414
415 416 417 418 419 420 421 422 423 424 425 426 427 428 429 430 431
432 433 434 435 436 437 438 439 440 441 442 443 444 445 446 447 448
449 450 451 452 453 454 455 456 457 458 459 460 461 462 463 464 465
466 467 468 469 470 471 472 473 474 475 476 477 478 479 480 481 482
483 484 485 486 487 488 489 490 491 492 493 494 495 496 497 498 499
500 501 502 503 504 505 506 507 508 509 510 511;
#X obj 0 130 dynamic-load-file sine1.wav \$0 1;
#X obj 10 151 dynamic-load-file sine2.wav \$0 2;
#X obj 20 172 dynamic-load-file sine3.wav \$0 3;
#X obj 30 193 dynamic-load-file sine4.wav \$0 4;
#X obj 40 214 dynamic-load-file sine5.wav \$0 5;
#X obj 50 235 dynamic-load-file sine6.wav \$0 6;
#X obj 60 256 dynamic-load-file sine7.wav \$0 7;
#X obj 70 277 dynamic-load-file sine8.wav \$0 0;
#X obj 80 298 dynamic-load-file sine9.wav \$0 1;
#X obj 90 319 dynamic-load-file sine10.wav \$0 2;
#X obj 100 340 dynamic-load-file sine11.wav \$0 3;
#X obj 110 361 dynamic-load-file sine12.wav \$0 4;
#X obj 120 382 dynamic-load-file sine13.wav \$0 5;
#X obj 130 403 dynamic-load-file sine14.wav \$0 6;
#X obj 140 424 dynamic-load-file sine15.wav \$0 7;
#X obj 150 445 dynamic-load-file sine16.wav \$0 0;
#X obj 160 466 dynamic-load-file sine17.wav \$0 1;
#X obj 170 487 dynamic-load-file sine18.wav \$0 2;
#X obj 180 508 dynamic-load-file sine19.wav \$0 3;
#X obj 190 529 dynamic-load-file sine20.wav \$0 4;
#X obj 200 550 dynamic-load-file sine21.wav \$0 5;
#X obj 210 571 dynamic-load-file sine22.wav \$0 6;
#X obj 220 592 dynamic-load-file sine23.wav \$0 7;
#X obj 230 613 dynamic-load-file sine24.wav \$0 0;
#X obj 240 634 dynamic-load-file sine25.wav \$0 1;
#X obj 250 655 dynamic-load-file sine26.wav \$0 2;
#X obj 260 676 dynamic-load-file sine27.wav \$0 3;
#X obj 270 697 dynamic-load-file sine28.wav \$0 4;
#X obj 280 718 dynamic-load-file sine29.wav \$0 5;
#X obj 290 739 dynamic-load-file sine30.wav \$0 6;
#X obj 300 760 dynamic-load-file sine31.wav \$0 7;
#X obj 310 781 dynamic-load-file sine32.wav \$0 0;
#X obj 320 802 dynamic-load-file sine33.wav \$0 1;
#X obj 330 823 dynamic-load-file sine34.wav \$0 2;
#X obj 340 844 dynamic-load-file sine35.wav \$0 3;
#X obj 350 865 dynamic-load-file sine36.wav \$0 4;
#X obj 360 886 dynamic-load-file sine37.wav \$0 5;
#X obj 370 907 dynamic-load-file sine38.wav \$0 6;
#X obj 380 928 dynamic-load-file sine39.wav \$0 7;
#X obj 390 949 dynamic-load-file sine40.wav \$0 0;
#X obj 400 970 dynamic-load-file sine41.wav \$0 1;
#X obj 410 991 dynamic-load-file sine42.wav \$0 2;
#X obj 420 1012 dynamic-load-file sine43.wav \$0 3;
#X obj 430 1033 dynamic-load-file sine44.wav \$0 4;
#X obj 440 1054 dynamic-load-file sine45.wav \$0 5;
#X obj 450 1075 dynamic-load-file sine46.wav \$0 6;
#X obj 460 1096 dynamic-load-file sine47.wav \$0 7;
#X obj 470 1117 dynamic-load-file sine48.wav \$0 0;
#X obj 480 1138 dynamic-load-file sine49.wav \$0 1;
#X obj 490 1159 dynamic-load-file sine50.wav \$0 2;
#X obj 500 1180 dynamic-load-file sine51.wav \$0 3;
#X obj 510 1201 dynamic-load-file sine52.wav \$0 4;
#X obj 520 1222 dynamic-load-file sine53.wav \$0 5;
#X obj 530 1243 dynamic-load-file sine54.wav \$0 6;
#X obj 540 1264 dynamic-load-file sine55.wav \$0 7;
#X obj 550 1285 dynamic-load-file sine56.wav \$0 0;
#X obj 560 1306 dynamic-load-file sine57.wav \$0 1;
#X obj 570 1327 dynamic-load-file sine58.wav \$0 2;
#X obj 580 1348 dynamic-load-file sine59.wav \$0 3;
#X obj 590 1369 dynamic-load-file sine60.wav \$0 4;
#X obj 600 1390 dynamic-load-file sine61.wav \$0 5;
#X obj 610 1411 dynamic-load-file sine62.wav \$0 6;
#X obj 620 1432 dynamic-load-file sine63.wav \$0 7;
#X obj 630 1453 dynamic-load-file sine64.wav \$0 0;
#X obj 640 1474 dynamic-load-file sine65.wav \$0 1;
#X obj 650 1495 dynamic-load-file sine66.wav \$0 2;
#X obj 660 1516 dynamic-load-file sine67.wav \$0 3;
#X obj 670 1537 dynamic-load-file sine68.wav \$0 4;
#X obj 680 1558 dynamic-load-file sine69.wav \$0 5;
#X obj 690 1579 dynamic-load-file sine70.wav \$0 6;
#X obj 700 1600 dynamic-load-file sine71.wav \$0 7;
#X obj 710 1621 dynamic-load-file sine72.wav \$0 0;
#X obj 720 1642 dynamic-load-file sine73.wav \$0 1;
#X obj 730 1663 dynamic-load-file sine74.wav \$0 2;
#X obj 740 1684 dynamic-load-file sine75.wav \$0 3;
#X obj 750 1705 dynamic-load-file sine76.wav \$0 4;
#X obj 760 1726 dynamic-load-file sine77.wav \$0 5;
#X obj 770 1747 dynamic-load-file sine78.wav \$0 6;
#X obj 780 1768 dynamic-load-file sine79.wav \$0 7;
#X obj 790 1789 dynamic-load-file sine80.wav \$0 0;
#X obj 800 1810 dynamic-load-file sine81.wav \$0 1;
#X obj 810 1831 dynamic-load-file sine82.wav \$0 2;
#X obj 820 1852 dynamic-load-file sine83.wav \$0 3;
#X obj 830 1873 dynamic-load-file sine84.wav \$0 4;
#X obj 840 1894 dynamic-load-file sine85.wav \$0 5;
#X obj 850 1915 dynamic-load-file sine86.wav \$0 6;
#X obj 860 1936 dynamic-load-file sine87.wav \$0 7;
#X obj 870 1957 dynamic-load-file sine88.wav \$0 0;
#X obj 880 1978 dynamic-load-file sine89.wav \$0 1;
#X obj 890 1999 dynamic-load-file sine90.wav \$0 2;
#X obj 900 2020 dynamic-load-file sine91.wav \$0 3;
#X obj 910 2041 dynamic-load-file sine92.wav \$0 4;
#X obj 920 2062 dynamic-load-file sine93.wav \$0 5;
#X obj 930 2083 dynamic-load-file sine94.wav \$0 6;
#X obj 940 2104 dynamic-load-file sine95.wav \$0 7;
#X obj 950 2125 dynamic-load-file sine96.wav \$0 0;
#X obj 960 2146 dynamic-load-file sine97.wav \$0 1;
#X obj 970 2167 dynamic-load-file sine98.wav \$0 2;
#X obj 980 2188 dynamic-load-file sine99.wav \$0 3;
#X obj 990 2209 dynamic-load-file sine100.wav \$0 4;
#X obj 1000 2230 dynamic-load-file sine101.wav \$0 5;
#X obj 1010 2251 dynamic-load-file sine102.wav \$0 6;
#X obj 1020 2272 dynamic-load-file sine103.wav \$0 7;
#X obj 1030 2293 dynamic-load-file sine104.wav \$0 0;
#X obj 1040 2314 dynamic-load-file sine105.wav \$0 1;
#X obj 1050 2335 dynamic-load-file sine106.wav \$0 2;
#X obj 1060 2356 dynamic-load-file sine107.wav \$0 3;
#X obj 1070 2377 dynamic-load-file sine108.wav \$0 4;
#X obj 1080 2398 dynamic-load-file sine109.wav \$0 5;
#X obj 1090 2419 dynamic-load-file sine110.wav \$0 6;
#X obj 1100 2440 dynamic-load-file sine111.wav \$0 7;
#X obj 1110 2461 dynamic-load-file sine112.wav \$0 0;
#X obj 1120 2482 dynamic-load-file sine113.wav \$0 1;
#X obj 1130 2503 dynamic-load-file sine114.wav \$0 2;
#X obj 1140 2524 dynamic-load-file sine115.wav \$0 3;
#X obj 1150 2545 dynamic-load-file sine116.wav \$0 4;
#X obj 1160 2566 dynamic-load-file sine117.wav \$0 5;
#X obj 1170 2587 dynamic-load-file sine118.wav \$0 6;
#X obj 1180 2608 dynamic-load-file sine119.wav \$0 7;
#X obj 1190 2629 dynamic-load-file sine120.wav \$0 0;
#X obj 1200 2650 dynamic-load-file sine121.wav \$0 1;
#X obj 1210 2671 dynamic-load-file sine122.wav \$0 2;
#X obj 1220 2692 dynamic-load-file sine123.wav \$0 3;
#X obj 1230 2713 dynamic-load-file sine124.wav \$0 4;
#X obj 1240 2734 dynamic-load-file sine125.wav \$0 5;
#X obj 1250 2755 dynamic-load-file sine126.wav \$0 6;
#X obj 1260 2776 dynamic-load-file sine127.wav \$0 7;
#X obj 1270 2797 dynamic-load-file sine128.wav \$0 0;
#X obj 1280 2818 dynamic-load-file sine129.wav \$0 1;
#X obj 1290 2839 dynamic-load-file sine130.wav \$0 2;
#X obj 1300 2860 dynamic-load-file sine131.wav \$0 3;
#X obj 1310 2881 dynamic-load-file sine132.wav \$0 4;
#X obj 1320 2902 dynamic-load-file sine133.wav \$0 5;
#X obj 1330 2923 dynamic-load-file sine134.wav \$0 6;
#X obj 1340 2944 dynamic-load-file sine135.wav \$0 7;
#X obj 1350 2965 dynamic-load-file sine136.wav \$0 0;
#X obj 1360 2986 dynamic-load-file sine137.wav \$0 1;
#X obj 1370 3007 dynamic-load-file sine138.wav \$0 2;
#X obj 1380 3028 dynamic-load-file sine139.wav \$0 3;
#X obj 1390 3049 dynamic-load-file sine140.wav \$0 4;
#X obj 1400 3070 dynamic-load-file sine141.wav \$0 5;
#X obj 1410 3091 dynamic-load-file sine142.wav \$0 6;
#X obj 1420 3112 dynamic-load-file sine143.wav \$0 7;
#X obj 1430 3133 dynamic-load-file sine144.wav \$0 0;
#X obj 1440 3154 dynamic-load-file sine145.wav \$0 1;
#X obj 1450 3175 dynamic-load-file sine146.wav \$0 2;
#X obj 1460 3196 dynamic-load-file sine147.wav \$0 3;
#X obj 1470 3217 dynamic-load-file sine148.wav \$0 4;
#X obj 1480 3238 dynamic-load-file sine149.wav \$0 5;
#X obj 1490 3259 dynamic-load-file sine150.wav \$0 6;
#X obj 1500 3280 dynamic-load-file sine151.wav \$0 7;
#X obj 1510 3301 dynamic-load-file sine152.wav \$0 0;
#X obj 1520 3322 dynamic-load-file sine153.wav \$0 1;
#X obj 1530 3343 dynamic-load-file sine154.wav \$0 2;
#X obj 1540 3364 dynamic-load-file sine155.wav \$0 3;
#X obj 1550 3385 dynamic-load-file sine156.wav \$0 4;
#X obj 1560 3406 dynamic-load-file sine157.wav \$0 5;
#X obj 1570 3427 dynamic-load-file sine158.wav \$0 6;
#X obj 1580 3448 dynamic-load-file sine159.wav \$0 7;
#X obj 1590 3469 dynamic-load-file sine160.wav \$0 0;
#X obj 1600 3490 dynamic-load-file sine161.wav \$0 1;
#X obj 1610 3511 dynamic-load-file sine162.wav \$0 2;
#X obj 1620 3532 dynamic-load-file sine163.wav \$0 3;
#X obj 1630 3553 dynamic-load-file sine164.wav \$0 4;
#X obj 1640 3574 dynamic-load-file sine165.wav \$0 5;
#X obj 1650 3595 dynamic-load-file sine166.wav \$0 6;
#X obj 1660 3616 dynamic-load-file sine167.wav \$0 7;
#X obj 1670 3637 dynamic-load-file sine168.wav \$0 0;
#X obj 1680 3658 dynamic-load-file sine169.wav \$0 1;
#X obj 1690 3679 dynamic-load-file sine170.wav \$0 2;
#X obj 1700 3700 dynamic-load-file sine171.wav \$0 3;
#X obj 1710 3721 dynamic-load-file sine172.wav \$0 4;
#X obj 1720 3742 dynamic-load-file sine173.wav \$0 5;
#X obj 1730 3763 dynamic-load-file sine174.wav \$0 6;
#X obj 1740 3784 dynamic-load-file sine175.wav \$0 7;
#X obj 1750 3805 dynamic-load-file sine176.wav \$0 0;
#X obj 1760 3826 dynamic-load-file sine177.wav \$0 1;
#X obj 1770 3847 dynamic-load-file sine178.wav \$0 2;
#X obj 1780 3868 dynamic-load-file sine179.wav \$0 3;
#X obj 1790 3889 dynamic-load-file sine180.wav \$0 4;
#X obj 1800 3910 dynamic-load-file sine181.wav \$0 5;
#X obj 1810 3931 dynamic-load-file sine182.wav \$0 6;
#X obj 1820 3952 dynamic-load-file sine183.wav \$0 7;
#X obj 1830 3973 dynamic-load-file sine184.wav \$0 0;
#X obj 1840 3994 dynamic-load-file sine185.wav \$0 1;
#X obj 1850 4015 dynamic-load-file sine186.wav \$0 2;
#X obj 1860 4036 dynamic-load-file sine187.wav \$0 3;
#X obj 1870 4057 dynamic-load-file sine188.wav \$0 4;
#X obj 1880 4078 dynamic-load-file sine189.wav \$0 5;
#X obj 1890 4099 dynamic-load-file sine190.wav \$0 6;
#X obj 1900 4120 dynamic-load-file sine191.wav \$0 7;
#X obj 1910 4141 dynamic-load-file sine192.wav \$0 0;
#X obj 1920 4162 dynamic-load-file sine193.wav \$0 1;
#X obj 1930 4183 dynamic-load-file sine194.wav \$0 2;
#X obj 1940 4204 dynamic-load-file sine195.wav \$0 3;
#X obj 1950 4225 dynamic-load-file sine196.wav \$0 4;
#X obj 1960 4246 dynamic-load-file sine197.wav \$0 5;
#X obj 1970 4267 dynamic-load-file sine198.wav \$0 6;
#X obj 1980 4288 dynamic-load-file sine199.wav \$0 7;
#X obj 1990 4309 dynamic-load-file sine200.wav \$0 0;
#X obj 2000 4330 dynamic-load-file sine201.wav \$0 1;
#X obj 2010 4351 dynamic-load-file sine202.wav \$0 2;
#X obj 2020 4372 dynamic-load-file sine203.wav \$0 3;
#X obj 2030 4393 dynamic-load-file sine204.wav \$0 4;
#X obj 2040 4414 dynamic-load-file sine205.wav \$0 5;
#X obj 2050 4435 dynamic-load-file sine206.wav \$0 6;
#X obj 2060 4456 dynamic-load-file sine207.wav \$0 7;
#X obj 2070 4477 dynamic-load-file sine208.wav \$0 0;
#X obj 2080 4498 dynamic-load-file sine209.wav \$0 1;
#X obj 2090 4519 dynamic-load-file sine210.wav \$0 2;
#X obj 2100 4540 dynamic-load-file sine211.wav \$0 3;
#X obj 2110 4561 dynamic-load-file sine212.wav \$0 4;
#X obj 2120 4582 dynamic-load-file sine213.wav \$0 5;
#X obj 2130 4603 dynamic-load-file sine214.wav \$0 6;
#X obj 2140 4624 dynamic-load-file sine215.wav \$0 7;
#X obj 2150 4645 dynamic-load-file sine216.wav \$0 0;
#X obj 2160 4666 dynamic-load-file sine217.wav \$0 1;
#X obj 2170 4687 dynamic-load-file sine218.wav \$0 2;
#X obj 2180 4708 dynamic-load-file sine219.wav \$0 3;
#X obj 2190 4729 dynamic-load-file sine220.wav \$0 4;
#X obj 2200 4750 dynamic-load-file sine221.wav \$0 5;
#X obj 2210 4771 dynamic-load-file sine222.wav \$0 6;
#X obj 2220 4792 dynamic-load-file sine223.wav \$0 7;
#X obj 2230 4813 dynamic-load-file sine224.wav \$0 0;
#X obj 2240 4834 dynamic-load-file sine225.wav \$0 1;
#X obj 2250 4855 dynamic-load-file sine226.wav \$0 2;
#X obj 2260 4876 dynamic-load-file sine227.wav \$0 3;
#X obj 2270 4897 dynamic-load-file sine228.wav \$0 4;
#X obj 2280 4918 dynamic-load-file sine229.wav \$0 5;
#X obj 2290 4939 dynamic-load-file sine230.wav \$0 6;
#X obj 2300 4960 dynamic-load-file sine231.wav \$0 7;
#X obj 2310 4981 dynamic-load-file sine232.wav \$0 0;
#X obj 2320 5002 dynamic-load-file sine233.wav \$0 1;
#X obj 2330 5023 dynamic-load-file sine234.wav \$0 2;
#X obj 2340 5044 dynamic-load-file sine235.wav \$0 3;
#X obj 2350 5065 dynamic-load-file sine236.wav \$0 4;
#X obj 2360 5086 dynamic-load-file sine237.wav \$0 5;
#X obj 2370 5107 dynamic-load-file sine238.wav \$0 6;
#X obj 2380 5128 dynamic-load-file sine239.wav \$0 7;
#X obj 2390 5149 dynamic-load-file sine240.wav \$0 0;
#X obj 2400 5170 dynamic-load-file sine241.wav \$0 1;
#X obj 2410 5191 dynamic-load-file sine242.wav \$0 2;
#X obj 2420 5212 dynamic-load-file sine243.wav \$0 3;
#X obj 2430 5233 dynamic-load-file sine244.wav \$0 4;
#X obj 2440 5254 dynamic-load-file sine245.wav \$0 5;
#X obj 2450 5275 dynamic-load-file sine246.wav \$0 6;
#X obj 2460 5296 dynamic-load-file sine247.wav \$0 7;
#X obj 2470 5317 dynamic-load-file sine248.wav \$0 0;
#X obj 2480 5338 dynamic-load-file sine249.wav \$0 1;
#X obj 2490 5359 dynamic-load-file sine250.wav \$0 2;
#X obj 2500 5380 dynamic-load-file sine251.wav \$0 3;
#X obj 2510 5401 dynamic-load-file sine252.wav \$0 4;
#X obj 2520 5422 dynamic-load-file sine253.wav \$0 5;
#X obj 2530 5443 dynamic-load-file sine254.wav \$0 6;
#X obj 2540 5464 dynamic-load-file sine255.wav \$0 7;
#X obj 2550 5485 dynamic-load-file sine256.wav \$0 0;
#X obj 2560 5506 dynamic-load-file sine257.wav \$0 1;
#X obj 2570 5527 dynamic-load-file sine258.wav \$0 2;
#X obj 2580 5548 dynamic-load-file sine259.wav \$0 3;
#X obj 2590 5569 dynamic-load-file sine260.wav \$0 4;
#X obj 2600 5590 dynamic-load-file sine261.wav \$0 5;
#X obj 2610 5611 dynamic-load-file sine262.wav \$0 6;
#X obj 2620 5632 dynamic-load-file sine263.wav \$0 7;
#X obj 2630 5653 dynamic-load-file sine264.wav \$0 0;
#X obj 2640 5674 dynamic-load-file sine265.wav \$0 1;
#X obj 2650 5695 dynamic-load-file sine266.wav \$0 2;
#X obj 2660 5716 dynamic-load-file sine267.wav \$0 3;
#X obj 2670 5737 dynamic-load-file sine268.wav \$0 4;
#X obj 2680 5758 dynamic-load-file sine269.wav \$0 5;
#X obj 2690 5779 dynamic-load-file sine270.wav \$0 6;
#X obj 2700 5800 dynamic-load-file sine271.wav \$0 7;
#X obj 2710 5821 dynamic-load-file sine272.wav \$0 0;
#X obj 2720 5842 dynamic-load-file sine273.wav \$0 1;
#X obj 2730 5863 dynamic-load-file sine274.wav \$0 2;
#X obj 2740 5884 dynamic-load-file sine275.wav \$0 3;
#X obj 2750 5905 dynamic-load-file sine276.wav \$0 4;
#X obj 2760 5926 dynamic-load-file sine277.wav \$0 5;
#X obj 2770 5947 dynamic-load-file sine278.wav \$0 6;
#X obj 2780 5968 dynamic-load-file sine279.wav \$0 7;
#X obj 2790 5989 dynamic-load-file sine280.wav \$0 0;
#X obj 2800 6010 dynamic-load-file sine281.wav \$0 1;
#X obj 2810 6031 dynamic-load-file sine282.wav \$0 2;
#X obj 2820 6052 dynamic-load-file sine283.wav \$0 3;
#X obj 2830 6073 dynamic-load-file sine284.wav \$0 4;
#X obj 2840 6094 dynamic-load-file sine285.wav \$0 5;
#X obj 2850 6115 dynamic-load-file sine286.wav \$0 6;
#X obj 2860 6136 dynamic-load-file sine287.wav \$0 7;
#X obj 2870 6157 dynamic-load-file sine288.wav \$0 0;
#X obj 2880 6178 dynamic-load-file sine289.wav \$0 1;
#X obj 2890 6199 dynamic-load-file sine290.wav \$0 2;
#X obj 2900 6220 dynamic-load-file sine291.wav \$0 3;
#X obj 2910 6241 dynamic-load-file sine292.wav \$0 4;
#X obj 2920 6262 dynamic-load-file sine293.wav \$0 5;
#X obj 2930 6283 dynamic-load-file sine294.wav \$0 6;
#X obj 2940 6304 dynamic-load-file sine295.wav \$0 7;
#X obj 2950 6325 dynamic-load-file sine296.wav \$0 0;
#X obj 2960 6346 dynamic-load-file sine297.wav \$0 1;
#X obj 2970 6367 dynamic-load-file sine298.wav \$0 2;
#X obj 2980 6388 dynamic-load-file sine299.wav \$0 3;
#X obj 2990 6409 dynamic-load-file sine300.wav \$0 4;
#X obj 3000 6430 dynamic-load-file sine301.wav \$0 5;
#X obj 3010 6451 dynamic-load-file sine302.wav \$0 6;
#X obj 3020 6472 dynamic-load-file sine303.wav \$0 7;
#X obj 3030 6493 dynamic-load-file sine304.wav \$0 0;
#X obj 3040 6514 dynamic-load-file sine305.wav \$0 1;
#X obj 3050 6535 dynamic-load-file sine306.wav \$0 2;
#X obj 3060 6556 dynamic-load-file sine307.wav \$0 3;
#X obj 3070 6577 dynamic-load-file sine308.wav \$0 4;
#X obj 3080 6598 dynamic-load-file sine309.wav \$0 5;
#X obj 3090 6619 dynamic-load-file sine310.wav \$0 6;
#X obj 3100 6640 dynamic-load-file sine311.wav \$0 7;
#X obj 3110 6661 dynamic-load-file sine312.wav \$0 0;
#X obj 3120 6682 dynamic-load-file sine313.wav \$0 1;
#X obj 3130 6703 dynamic-load-file sine314.wav \$0 2;
#X obj 3140 6724 dynamic-load-file sine315.wav \$0 3;
#X obj 3150 6745 dynamic-load-file sine316.wav \$0 4;
#X obj 3160 6766 dynamic-load-file sine317.wav \$0 5;
#X obj 3170 6787 dynamic-load-file sine318.wav \$0 6;
#X obj 3180 6808 dynamic-load-file sine319.wav \$0 7;
#X obj 3190 6829 dynamic-load-file sine320.wav \$0 0;
#X obj 3200 6850 dynamic-load-file sine321.wav \$0 1;
#X obj 3210 6871 dynamic-load-file sine322.wav \$0 2;
#X obj 3220 6892 dynamic-load-file sine323.wav \$0 3;
#X obj 3230 6913 dynamic-load-file sine324.wav \$0 4;
#X obj 3240 6934 dynamic-load-file sine325.wav \$0 5;
#X obj 3250 6955 dynamic-load-file sine326.wav \$0 6;
#X obj 3260 6976 dynamic-load-file sine327.wav \$0 7;
#X obj 3270 6997 dynamic-load-file sine328.wav \$0 0;
#X obj 3280 7018 dynamic-load-file sine329.wav \$0 1;
#X obj 3290 7039 dynamic-load-file sine330.wav \$0 2;
#X obj 3300 7060 dynamic-load-file sine331.wav \$0 3;
#X obj 3310 7081 dynamic-load-file sine332.wav \$0 4;
#X obj 3320 7102 dynamic-load-file sine333.wav \$0 5;
#X obj 3330 7123 dynamic-load-file sine334.wav \$0 6;
#X obj 3340 7144 dynamic-load-file sine335.wav \$0 7;
#X obj 3350 7165 dynamic-load-file sine336.wav \$0 0;
#X obj 3360 7186 dynamic-load-file sine337.wav \$0 1;
#X obj 3370 7207 dynamic-load-file sine338.wav \$0 2;
#X obj 3380 7228 dynamic-load-file sine339.wav \$0 3;
#X obj 3390 7249 dynamic-load-file sine340.wav \$0 4;
#X obj 3400 7270 dynamic-load-file sine341.wav \$0 5;
#X obj 3410 7291 dynamic-load-file sine342.wav \$0 6;
#X obj 3420 7312 dynamic-load-file sine343.wav \$0 7;
#X obj 3430 7333 dynamic-load-file sine344.wav \$0 0;
#X obj 3440 7354 dynamic-load-file sine345.wav \$0 1;
#X obj 3450 7375 dynamic-load-file sine346.wav \$0 2;
#X obj 3460 7396 dynamic-load-file sine347.wav \$0 3;
#X obj 3470 7417 dynamic-load-file sine348.wav \$0 4;
#X obj 3480 7438 dynamic-load-file sine349.wav \$0 5;
#X obj 3490 7459 dynamic-load-file sine350.wav \$0 6;
#X obj 3500 7480 dynamic-load-file sine351.wav \$0 7;
#X obj 3510 7501 dynamic-load-file sine352.wav \$0 0;
#X obj 3520 7522 dynamic-load-file sine353.wav \$0 1;
#X obj 3530 7543 dynamic-load-file sine354.wav \$0 2;
#X obj 3540 7564 dynamic-load-file sine355.wav \$0 3;
#X obj 3550 7585 dynamic-load-file sine356.wav \$0 4;
#X obj 3560 7606 dynamic-load-file sine357.wav \$0 5;
#X obj 3570 7627 dynamic-load-file sine358.wav \$0 6;
#X obj 3580 7648 dynamic-load-file sine359.wav \$0 7;
#X obj 3590 7669 dynamic-load-file sine360.wav \$0 0;
#X obj 3600 7690 dynamic-load-file sine361.wav \$0 1;
#X obj 3610 7711 dynamic-load-file sine362.wav \$0 2;
#X obj 3620 7732 dynamic-load-file sine363.wav \$0 3;
#X obj 3630 7753 dynamic-load-file sine364.wav \$0 4;
#X obj 3640 7774 dynamic-load-file sine365.wav \$0 5;
#X obj 3650 7795 dynamic-load-file sine366.wav \$0 6;
#X obj 3660 7816 dynamic-load-file sine367.wav \$0 7;
#X obj 3670 7837 dynamic-load-file sine368.wav \$0 0;
#X obj 3680 7858 dynamic-load-file sine369.wav \$0 1;
#X obj 3690 7879 dynamic-load-file sine370.wav \$0 2;
#X obj 3700 7900 dynamic-load-file sine371.wav \$0 3;
#X obj 3710 7921 dynamic-load-file sine372.wav \$0 4;
#X obj 3720 7942 dynamic-load-file sine373.wav \$0 5;
#X obj 3730 7963 dynamic-load-file sine374.wav \$0 6;
#X obj 3740 7984 dynamic-load-file sine375.wav \$0 7;
#X obj 3750 8005 dynamic-load-file sine376.wav \$0 0;
#X obj 3760 8026 dynamic-load-file sine377.wav \$0 1;
#X obj 3770 8047 dynamic-load-file sine378.wav \$0 2;
#X obj 3780 8068 dynamic-load-file sine379.wav \$0 3;
#X obj 3790 8089 dynamic-load-file sine380.wav \$0 4;
#X obj 3800 8110 dynamic-load-file sine381.wav \$0 5;
#X obj 3810 8131 dynamic-load-file sine382.wav \$0 6;
#X obj 3820 8152 dynamic-load-file sine383.wav \$0 7;
#X obj 3830 8173 dynamic-load-file sine384.wav \$0 0;
#X obj 3840 8194 dynamic-load-file sine385.wav \$0 1;
#X obj 3850 8215 dynamic-load-file sine386.wav \$0 2;
#X obj 3860 8236 dynamic-load-file sine387.wav \$0 3;
#X obj 3870 8257 dynamic-load-file sine388.wav \$0 4;
#X obj 3880 8278 dynamic-load-file sine389.wav \$0 5;
#X obj 3890 8299 dynamic-load-file sine390.wav \$0 6;
#X obj 3900 8320 dynamic-load-file sine391.wav \$0 7;
#X obj 3910 8341 dynamic-load-file sine392.wav \$0 0;
#X obj 3920 8362 dynamic-load-file sine393.wav \$0 1;
#X obj 3930 8383 dynamic-load-file sine394.wav \$0 2;
#X obj 3940 8404 dynamic-load-file sine395.wav \$0 3;
#X obj 3950 8425 dynamic-load-file sine396.wav \$0 4;
#X obj 3960 8446 dynamic-load-file sine397.wav \$0 5;
#X obj 3970 8467 dynamic-load-file sine398.wav \$0 6;
#X obj 3980 8488 dynamic-load-file sine399.wav \$0 7;
#X obj 3990 8509 dynamic-load-file sine400.wav \$0 0;
#X obj 4000 8530 dynamic-load-file sine401.wav \$0 1;
#X obj 4010 8551 dynamic-load-file sine402.wav \$0 2;
#X obj 4020 8572 dynamic-load-file sine403.wav \$0 3;
#X obj 4030 8593 dynamic-load-file sine404.wav \$0 4;
#X obj 4040 8614 dynamic-load-file sine405.wav \$0 5;
#X obj 4050 8635 dynamic-load-file sine406.wav \$0 6;
#X obj 4060 8656 dynamic-load-file sine407.wav \$0 7;
#X obj 4070 8677 dynamic-load-file sine408.wav \$0 0;
#X obj 4080 8698 dynamic-load-file sine409.wav \$0 1;
#X obj 4090 8719 dynamic-load-file sine410.wav \$0 2;
#X obj 4100 8740 dynamic-load-file sine411.wav \$0 3;
#X obj 4110 8761 dynamic-load-file sine412.wav \$0 4;
#X obj 4120 8782 dynamic-load-file sine413.wav \$0 5;
#X obj 4130 8803 dynamic-load-file sine414.wav \$0 6;
#X obj 4140 8824 dynamic-load-file sine415.wav \$0 7;
#X obj 4150 8845 dynamic-load-file sine416.wav \$0 0;
#X obj 4160 8866 dynamic-load-file sine417.wav \$0 1;
#X obj 4170 8887 dynamic-load-file sine418.wav \$0 2;
#X obj 4180 8908 dynamic-load-file sine419.wav \$0 3;
#X obj 4190 8929 dynamic-load-file sine420.wav \$0 4;
#X obj 4200 8950 dynamic-load-file sine421.wav \$0 5;
#X obj 4210 8971 dynamic-load-file sine422.wav \$0 6;
#X obj 4220 8992 dynamic-load-file sine423.wav \$0 7;
#X obj 4230 9013 dynamic-load-file sine424.wav \$0 0;
#X obj 4240 9034 dynamic-load-file sine425.wav \$0 1;
#X obj 4250 9055 dynamic-load-file sine426.wav \$0 2;
#X obj 4260 9076 dynamic-load-file sine427.wav \$0 3;
#X obj 4270 9097 dynamic-load-file sine428.wav \$0 4;
#X obj 4280 9118 dynamic-load-file sine429.wav \$0 5;
#X obj 4290 9139 dynamic-load-file sine430.wav \$0 6;
#X obj 4300 9160 dynamic-load-file sine431.wav \$0 7;
#X obj 4310 9181 dynamic-load-file sine432.wav \$0 0;
#X obj 4320 9202 dynamic-load-file sine433.wav \$0 1;
#X obj 4330 9223 dynamic-load-file sine434.wav \$0 2;
#X obj 4340 9244 dynamic-load-file sine435.wav \$0 3;
#X obj 4350 9265 dynamic-load-file sine436.wav \$0 4;
#X obj 4360 9286 dynamic-load-file sine437.wav \$0 5;
#X obj 4370 9307 dynamic-load-file sine438.wav \$0 6;
#X obj 4380 9328 dynamic-load-file sine439.wav \$0 7;
#X obj 4390 9349 dynamic-load-file sine440.wav \$0 0;
#X obj 4400 9370 dynamic-load-file sine441.wav \$0 1;
#X obj 4410 9391 dynamic-load-file sine442.wav \$0 2;
#X obj 4420 9412 dynamic-load-file sine443.wav \$0 3;
#X obj 4430 9433 dynamic-load-file sine444.wav \$0 4;
#X obj 4440 9454 dynamic-load-file sine445.wav \$0 5;
#X obj 4450 9475 dynamic-load-file sine446.wav \$0 6;
#X obj 4460 9496 dynamic-load-file sine447.wav \$0 7;
#X obj 4470 9517 dynamic-load-file sine448.wav \$0 0;
#X obj 4480 9538 dynamic-load-file sine449.wav \$0 1;
#X obj 4490 9559 dynamic-load-file sine450.wav \$0 2;
#X obj 4500 9580 dynamic-load-file sine451.wav \$0 3;
#X obj 4510 9601 dynamic-load-file sine452.wav \$0 4;
#X obj 4520 9622 dynamic-load-file sine453.wav \$0 5;
#X obj 4530 9643 dynamic-load-file sine454.wav \$0 6;
#X obj 4540 9664 dynamic-load-file sine455.wav \$0 7;
#X obj 4550 9685 dynamic-load-file sine456.wav \$0 0;
#X obj 4560 9706 dynamic-load-file sine457.wav \$0 1;
#X obj 4570 9727 dynamic-load-file sine458.wav \$0 2;
#X obj 4580 9748 dynamic-load-file sine459.wav \$0 3;
#X obj 4590 9769 dynamic-load-file sine460.wav \$0 4;
#X obj 4600 9790 dynamic-load-file sine461.wav \$0 5;
#X obj 4610 9811 dynamic-load-file sine462.wav \$0 6;
#X obj 4620 9832 dynamic-load-file sine463.wav \$0 7;
#X obj 4630 9853 dynamic-load-file sine464.wav \$0 0;
#X obj 4640 9874 dynamic-load-file sine465.wav \$0 1;
#X obj 4650 9895 dynamic-load-file sine466.wav \$0 2;
#X obj 4660 9916 dynamic-load-file sine467.wav \$0 3;
#X obj 4670 9937 dynamic-load-file sine468.wav \$0 4;
#X obj 4680 9958 dynamic-load-file sine469.wav \$0 5;
#X obj 4690 9979 dynamic-load-file sine470.wav \$0 6;
#X obj 4700 10000 dynamic-load-file sine471.wav \$0 7;
#X obj 4710 10021 dynamic-load-file sine472.wav \$0 0;
#X obj 4720 10042 dynamic-load-file sine473.wav \$0 1;
#X obj 4730 10063 dynamic-load-file sine474.wav \$0 2;
#X obj 4740 10084 dynamic-load-file sine475.wav \$0 3;
#X obj 4750 10105 dynamic-load-file sine476.wav \$0 4;
#X obj 4760 10126 dynamic-load-file sine477.wav \$0 5;
#X obj 4770 10147 dynamic-load-file sine478.wav \$0 6;
#X obj 4780 10168 dynamic-load-file sine479.wav \$0 7;
#X obj 4790 10189 dynamic-load-file sine480.wav \$0 0;
#X obj 4800 10210 dynamic-load-file sine481.wav \$0 1;
#X obj 4810 10231 dynamic-load-file sine482.wav \$0 2;
#X obj 4820 10252 dynamic-load-file sine483.wav \$0 3;
#X obj 4830 10273 dynamic-load-file sine484.wav \$0 4;
#X obj 4840 10294 dynamic-load-file sine485.wav \$0 5;
#X obj 4850 10315 dynamic-load-file sine486.wav \$0 6;
#X obj 4860 10336 dynamic-load-file sine487.wav \$0 7;
#X obj 4870 10357 dynamic-load-file sine488.wav \$0 0;
#X obj 4880 10378 dynamic-load-file sine489.wav \$0 1;
#X obj 4890 10399 dynamic-load-file sine490.wav \$0 2;
#X obj 4900 10420 dynamic-load-file sine491.wav \$0 3;
#X obj 4910 10441 dynamic-load-file sine492.wav \$0 4;
#X obj 4920 10462 dynamic-load-file sine493.wav \$0 5;
#X obj 4930 10483 dynamic-load-file sine494.wav \$0 6;
#X obj 4940 10504 dynamic-load-file sine495.wav \$0 7;
#X obj 4950 10525 dynamic-load-file sine496.wav \$0 0;
#X obj 4960 10546 dynamic-load-file sine497.wav \$0 1;
#X obj 4970 10567 dynamic-load-file sine498.wav \$0 2;
#X obj 4980 10588 dynamic-load-file sine499.wav \$0 3;
#X obj 4990 10609 dynamic-load-file sine500.wav \$0 4;
#X obj 5000 10630 dynamic-load-file sine501.wav \$0 5;
#X obj 5010 10651 dynamic-load-file sine502.wav \$0 6;
#X obj 5020 10672 dynamic-load-file sine503.wav \$0 7;
#X obj 5030 10693 dynamic-load-file sine504.wav \$0 0;
#X obj 5040 10714 dynamic-load-file sine505.wav \$0 1;
#X obj 5050 10735 dynamic-load-file sine506.wav \$0 2;
#X obj 5060 10756 dynamic-load-file sine507.wav \$0 3;
#X obj 5070 10777 dynamic-load-file sine508.wav \$0 4;
#X obj 5080 10798 dynamic-load-file sine509.wav \$0 5;
#X obj 5090 10819 dynamic-load-file sine510.wav \$0 6;
#X obj 5100 10840 dynamic-load-file sine511.wav \$0 7;
#X obj 5110 10861 dynamic-load-file sine512.wav \$0 0;
#X connect 0 0 1 0;
#X connect 1 0 2 0;
#X connect 2 1 3 0;
#X connect 2 2 4 0;
#X connect 2 3 5 0;
#X connect 2 4 6 0;
#X connect 2 5 7 0;
#X connect 2 6 8 0;
#X connect 2 7 9 0;
#X connect 2 8 10 0;
#X connect 2 9 11 0;
#X connect 2 10 12 0;
#X connect 2 11 13 0;
#X connect 2 12 14 0;
#X connect 2 13 15 0;
#X connect 2 14 16 0;
#X connect 2 15 17 0;
#X connect 2 16 18 0;
#X connect 2 17 19 0;
#X connect 2 18 20 0;
#X connect 2 19 21 0;
#X connect 2 20 22 0;
#X connect 2 21 23 0;
#X connect 2 22 24 0;
#X connect 2 23 25 0;
#X connect 2 24 26 0;
#X connect 2 25 27 0;
#X connect 2 26 28 0;
#X connect 2 27 29 0;
#X connect 2 28 30 0;
#X connect 2 29 31 0;
#X connect 2 30 32 0;
#X connect 2 31 33 0;
#X connect 2 32 34 0;
#X connect 2 33 35 0;
#X connect 2 34 36 0;
#X connect 2 35 37 0;
#X connect 2 36 38 0;
#X connect 2 37 39 0;
#X connect 2 38 40 0;
#X connect 2 39 41 0;
#X connect 2 40 42 0;
#X connect 2 41 43 0;
#X connect 2 42 44 0;
#X connect 2 43 45 0;
#X connect 2 44 46 0;
#X connect 2 45 47 0;
#X connect 2 46 48 0;
#X connect 2 47 49 0;
#X connect 2 48 50 0;
#X connect 2 49 51 0;
#X connect 2 50 52 0;
#X connect 2 51 53 0;
#X connect 2 52 54 0;
#X connect 2 53 55 0;
#X connect 2 54 56 0;
#X connect 2 55 57 0;
#X connect 2 56 58 0;
#X connect 2 57 59 0;
#X connect 2 58 60 0;
#X connect 2 59 61 0;
#X connect 2 60 62 0;
#X connect 2 61 63 0;
#X connect 2 62 64 0;
#X connect 2 63 65 0;
#X connect 2 64 66 0;
#X connect 2 65 67 0;
#X connect 2 66 68 0;
#X connect 2 67 69 0;
#X connect 2 68 70 0;
#X connect 2 69 71 0;
#X connect 2 70 72 0;
#X connect 2 71 73 0;
#X connect 2 72 74 0;
#X connect 2 73 75 0;
#X connect 2 74 76 0;
#X connect 2 75 77 0;
#X connect 2 76 78 0;
#X connect 2 77 79 0;
#X connect 2 78 80 0;
#X connect 2 79 81 0;
#X connect 2 80 82 0;
#X connect 2 81 83 0;
#X connect 2 82 84 0;
#X connect 2 83 85 0;
#X connect 2 84 86 0;
#X connect 2 85 87 0;
#X connect 2 86 88 0;
#X connect 2 87 89 0;
#X connect 2 88 90 0;
#X connect 2 89 91 0;
#X connect 2 90 92 0;
#X connect 2 91 93 0;
#X connect 2 92 94 0;
#X connect 2 93 95 0;
#X connect 2 94 96 0;
#X connect 2 95 97 0;
#X connect 2 96 98 0;
#X connect 2 97 99 0;
#X connect 2 98 100 0;
#X connect 2 99 101 0;
#X connect 2 100 102 0;
#X connect 2 101 103 0;
#X connect 2 102 104 0;
#X connect 2 103 105 0;
#X connect 2 104 106 0;
#X connect 2 105 107 0;
#X connect 2 106 108 0;
#X connect 2 107 109 0;
#X connect 2 108 110 0;
#X connect 2 109 111 0;
#X connect 2 110 112 0;
#X connect 2 111 113 0;
#X connect 2 112 114 0;
#X connect 2 113 115 0;
#X connect 2 114 116 0;
#X connect 2 115 117 0;
#X connect 2 116 118 0;
#X connect 2 117 119 0;
#X connect 2 118 120 0;
#X connect 2 119 121 0;
#X connect 2 120 122 0;
#X connect 2 121 123 0;
#X connect 2 122 124 0;
#X connect 2 123 125 0;
#X connect 2 124 126 0;
#X connect 2 125 127 0;
#X connect 2 126 128 0;
#X connect 2 127 129 0;
#X connect 2 128 130 0;
#X connect 2 129 131 0;
#X connect 2 130 132 0;
#X connect 2 131 133 0;
#X connect 2 132 134 0;
#X connect 2 133 135 0;
#X connect 2 134 136 0;
#X connect 2 135 137 0;
#X connect 2 136 138 0;
#X connect 2 137 139 0;
#X connect 2 138 140 0;
#X connect 2 139 141 0;
#X connect 2 140 142 0;
#X connect 2 141 143 0;
#X connect 2 142 144 0;
#X connect 2 143 145 0;
#X connect 2 144 146 0;
#X connect 2 145 147 0;
#X connect 2 146 148 0;
#X connect 2 147 149 0;
#X connect 2 148 150 0;
#X connect 2 149 151 0;
#X connect 2 150 152 0;
#X connect 2 151 153 0;
#X connect 2 152 154 0;
#X connect 2 153 155 0;
#X connect 2 154 156 0;
#X connect 2 155 157 0;
#X connect 2 156 158 0;
#X connect 2 157 159 0;
#X connect 2 158 160 0;
#X connect 2 159 161 0;
#X connect 2 160 162 0;
#X connect 2 161 163 0;
#X connect 2 162 164 0;
#X connect 2 163 165 0;
#X connect 2 164 166 0;
#X connect 2 165 167 0;
#X connect 2 166 168 0;
#X connect 2 167 169 0;
#X connect 2 168 170 0;
#X connect 2 169 171 0;
#X connect 2 170 172 0;
#X connect 2 171 173 0;
#X connect 2 172 174 0;
#X connect 2 173 175 0;
#X connect 2 174 176 0;
#X connect 2 175 177 0;
#X connect 2 176 178 0;
#X connect 2 177 179 0;
#X connect 2 178 180 0;
#X connect 2 179 181 0;
#X connect 2 180 182 0;
#X connect 2 181 183 0;
#X connect 2 182 184 0;
#X connect 2 183 185 0;
#X connect 2 184 186 0;
#X connect 2 185 187 0;
#X connect 2 186 188 0;
#X connect 2 187 189 0;
#X connect 2 188 190 0;
#X connect 2 189 191 0;
#X connect 2 190 192 0;
#X connect 2 191 193 0;
#X connect 2 192 194 0;
#X connect 2 193 195 0;
#X connect 2 194 196 0;
#X connect 2 195 197 0;
#X connect 2 196 198 0;
#X connect 2 197 199 0;
#X connect 2 198 200 0;
#X connect 2 199 201 0;
#X connect 2 200 202 0;
#X connect 2 201 203 0;
#X connect 2 202 204 0;
#X connect 2 203 205 0;
#X connect 2 204 206 0;
#X connect 2 205 207 0;
#X connect 2 206 208 0;
#X connect 2 207 209 0;
#X connect 2 208 210 0;
#X connect 2 209 211 0;
#X connect 2 210 212 0;
#X connect 2 211 213 0;
#X connect 2 212 214 0;
#X connect 2 213 215 0;
#X connect 2 214 216 0;
#X connect 2 215 217 0;
#X connect 2 216 218 0;
#X connect 2 217 219 0;
#X connect 2 218 220 0;
#X connect 2 219 221 0;
#X connect 2 220 222 0;
#X connect 2 221 223 0;
#X connect 2 222 224 0;
#X connect 2 223 225 0;
#X connect 2 224 226 0;
#X connect 2 225 227 0;
#X connect 2 226 228 0;
#X connect 2 227 229 0;
#X connect 2 228 230 0;
#X connect 2 229 231 0;
#X connect 2 230 232 0;
#X connect 2 231 233 0;
#X connect 2 232 234 0;
#X connect 2 233 235 0;
#X connect 2 234 236 0;
#X connect 2 235 237 0;
#X connect 2 236 238 0;
#X connect 2 237 239 0;
#X connect 2 238 240 0;
#X connect 2 239 241 0;
#X connect 2 240 242 0;
#X connect 2 241 243 0;
#X connect 2 242 244 0;
#X connect 2 243 245 0;
#X connect 2 244 246 0;
#X connect 2 245 247 0;
#X connect 2 246 248 0;
#X connect 2 247 249 0;
#X connect 2 248 250 0;
#X connect 2 249 251 0;
#X connect 2 250 252 0;
#X connect 2 251 253 0;
#X connect 2 252 254 0;
#X connect 2 253 255 0;
#X connect 2 254 256 0;
#X connect 2 255 257 0;
#X connect 2 256 258 0;
#X connect 2 257 259 0;
#X connect 2 258 260 0;
#X connect 2 259 261 0;
#X connect 2 260 262 0;
#X connect 2 261 263 0;
#X connect 2 262 264 0;
#X connect 2 263 265 0;
#X connect 2 264 266 0;
#X connect 2 265 267 0;
#X connect 2 266 268 0;
#X connect 2 267 269 0;
#X connect 2 268 270 0;
#X connect 2 269 271 0;
#X connect 2 270 272 0;
#X connect 2 271 273 0;
#X connect 2 272 274 0;
#X connect 2 273 275 0;
#X connect 2 274 276 0;
#X connect 2 275 277 0;
#X connect 2 276 278 0;
#X connect 2 277 279 0;
#X connect 2 278 280 0;
#X connect 2 279 281 0;
#X connect 2 280 282 0;
#X connect 2 281 283 0;
#X connect 2 282 284 0;
#X connect 2 283 285 0;
#X connect 2 284 286 0;
#X connect 2 285 287 0;
#X connect 2 286 288 0;
#X connect 2 287 289 0;
#X connect 2 288 290 0;
#X connect 2 289 291 0;
#X connect 2 290 292 0;
#X connect 2 291 293 0;
#X connect 2 292 294 0;
#X connect 2 293 295 0;
#X connect 2 294 296 0;
#X connect 2 295 297 0;
#X connect 2 296 298 0;
#X connect 2 297 299 0;
#X connect 2 298 300 0;
#X connect 2 299 301 0;
#X connect 2 300 302 0;
#X connect 2 301 303 0;
#X connect 2 302 304 0;
#X connect 2 303 305 0;
#X connect 2 304 306 0;
#X connect 2 305 307 0;
#X connect 2 306 308 0;
#X connect 2 307 309 0;
#X connect 2 308 310 0;
#X connect 2 309 311 0;
#X connect 2 310 312 0;
#X connect 2 311 313 0;
#X connect 2 312 314 0;
#X connect 2 313 315 0;
#X connect 2 314 316 0;
#X connect 2 315 317 0;
#X connect 2 316 318 0;
#X connect 2 317 319 0;
#X connect 2 318 320 0;
#X connect 2 319 321 0;
#X connect 2 320 322 0;
#X connect 2 321 323 0;
#X connect 2 322 324 0;
#X connect 2 323 325 0;
#X connect 2 324 326 0;
#X connect 2 325 327 0;
#X connect 2 326 328 0;
#X connect 2 327 329 0;
#X connect 2 328 330 0;
#X connect 2 329 331 0;
#X connect 2 330 332 0;
#X connect 2 331 333 0;
#X connect 2 332 334 0;
#X connect 2 333 335 0;
#X connect 2 334 336 0;
#X connect 2 335 337 0;
#X connect 2 336 338 0;
#X connect 2 337 339 0;
#X connect 2 338 340 0;
#X connect 2 339 341 0;
#X connect 2 340 342 0;
#X connect 2 341 343 0;
#X connect 2 342 344 0;
#X connect 2 343 345 0;
#X connect 2 344 346 0;
#X connect 2 345 347 0;
#X connect 2 346 348 0;
#X connect 2 347 349 0;
#X connect 2 348 350 0;
#X connect 2 349 351 0;
#X connect 2 350 352 0;
#X connect 2 351 353 0;
#X connect 2 352 354 0;
#X connect 2 353 355 0;
#X connect 2 354 356 0;
#X connect 2 355 357 0;
#X connect 2 356 358 0;
#X connect 2 357 359 0;
#X connect 2 358 360 0;
#X connect 2 359 361 0;
#X connect 2 360 362 0;
#X connect 2 361 363 0;
#X connect 2 362 364 0;
#X connect 2 363 365 0;
#X connect 2 364 366 0;
#X connect 2 365 367 0;
#X connect 2 366 368 0;
#X connect 2 367 369 0;
#X connect 2 368 370 0;
#X connect 2 369 371 0;
#X connect 2 370 372 0;
#X connect 2 371 373 0;
#X connect 2 372 374 0;
#X connect 2 373 375 0;
#X connect 2 374 376 0;
#X connect 2 375 377 0;
#X connect 2 376 378 0;
#X connect 2 377 379 0;
#X connect 2 378 380 0;
#X connect 2 379 381 0;
#X connect 2 380 382 0;
#X connect 2 381 383 0;
#X connect 2 382 384 0;
#X connect 2 383 385 0;
#X connect 2 384 386 0;
#X connect 2 385 387 0;
#X connect 2 386 388 0;
#X connect 2 387 389 0;
#X connect 2 388 390 0;
#X connect 2 389 391 0;
#X connect 2 390 392 0;
#X connect 2 391 393 0;
#X connect 2 392 394 0;
#X connect 2 393 395 0;
#X connect 2 394 396 0;
#X connect 2 395 397 0;
#X connect 2 396 398 0;
#X connect 2 397 399 0;
#X connect 2 398 400 0;
#X connect 2 399 401 0;
#X connect 2 400 402 0;
#X connect 2 401 403 0;
#X connect 2 402 404 0;
#X connect 2 403 405 0;
#X connect 2 404 406 0;
#X connect 2 405 407 0;
#X connect 2 406 408 0;
#X connect 2 407 409 0;
#X connect 2 408 410 0;
#X connect 2 409 411 0;
#X connect 2 410 412 0;
#X connect 2 411 413 0;
#X connect 2 412 414 0;
#X connect 2 413 415 0;
#X connect 2 414 416 0;
#X connect 2 415 417 0;
#X connect 2 416 418 0;
#X connect 2 417 419 0;
#X connect 2 418 420 0;
#X connect 2 419 421 0;
#X connect 2 420 422 0;
#X connect 2 421 423 0;
#X connect 2 422 424 0;
#X connect 2 423 425 0;
#X connect 2 424 426 0;
#X connect 2 425 427 0;
#X connect 2 426 428 0;
#X connect 2 427 429 0;
#X connect 2 428 430 0;
#X connect 2 429 431 0;
#X connect 2 430 432 0;
#X connect 2 431 433 0;
#X connect 2 432 434 0;
#X connect 2 433 435 0;
#X connect 2 434 436 0;
#X connect 2 435 437 0;
#X connect 2 436 438 0;
#X connect 2 437 439 0;
#X connect 2 438 440 0;
#X connect 2 439 441 0;
#X connect 2 440 442 0;
#X connect 2 441 443 0;
#X connect 2 442 444 0;
#X connect 2 443 445 0;
#X connect 2 444 446 0;
#X connect 2 445 447 0;
#X connect 2 446 448 0;
#X connect 2 447 449 0;
#X connect 2 448 450 0;
#X connect 2 449 451 0;
#X connect 2 450 452 0;
#X connect 2 451 453 0;
#X connect 2 452 454 0;
#X connect 2 453 455 0;
#X connect 2 454 456 0;
#X connect 2 455 457 0;
#X connect 2 456 458 0;
#X connect 2 457 459 0;
#X connect 2 458 460 0;
#X connect 2 459 461 0;
#X connect 2 460 462 0;
#X connect 2 461 463 0;
#X connect 2 462 464 0;
#X connect 2 463 465 0;
#X connect 2 464 466 0;
#X connect 2 465 467 0;
#X connect 2 466 468 0;
#X connect 2 467 469 0;
#X connect 2 468 470 0;
#X connect 2 469 471 0;
#X connect 2 470 472 0;
#X connect 2 471 473 0;
#X connect 2 472 474 0;
#X connect 2 473 475 0;
#X connect 2 474 476 0;
#X connect 2 475 477 0;
#X connect 2 476 478 0;
#X connect 2 477 479 0;
#X connect 2 478 480 0;
#X connect 2 479 481 0;
#X connect 2 480 482 0;
#X connect 2 481 483 0;
#X connect 2 482 484 0;
#X connect 2 483 485 0;
#X connect 2 484 486 0;
#X connect 2 485 487 0;
#X connect 2 486 488 0;
#X connect 2 487 489 0;
#X connect 2 488 490 0;
#X connect 2 489 491 0;
#X connect 2 490 492 0;
#X connect 2 491 493 0;
#X connect 2 492 494 0;
#X connect 2 493 495 0;
#X connect 2 494 496 0;
#X connect 2 495 497 0;
#X connect 2 496 498 0;
#X connect 2 497 499 0;
#X connect 2 498 500 0;
#X connect 2 499 501 0;
#X connect 2 500 502 0;
#X connect 2 501 503 0;
#X connect 2 502 504 0;
#X connect 2 503 505 0;
#X connect 2 504 506 0;
#X connect 2 505 507 0;
#X connect 2 506 508 0;
#X connect 2 507 509 0;
#X connect 2 508 510 0;
#X connect 2 509 511 0;
#X connect 2 510 512 0;
#X connect 2 511 513 0;
#X connect 2 512 514 0;
#X restore 778 353 pd \$0-fileplayers;
#X floatatom 677 270 5 0 0 0 - - -;
#X obj 502 309 expr $f1*21+130 \; $f1*10 \; $f1+3 \; $f1+1 \; ($f1+1)&7
;
#X obj 493 391 pack 1 2 3 4 5;
#X msg 493 480 obj \$2 \$1 dynamic-load-file sine\$4.wav $\$0 \$5 \,
connect 2 \$4 \$3 0;
#X connect 0 0 5 0;
#X connect 1 0 2 0;
#X connect 2 0 5 0;
#X connect 3 0 4 0;
#X connect 5 1 3 0;
#X connect 5 3 16 0;
#X connect 5 4 7 0;
#X connect 5 6 13 0;
#X connect 5 7 15 0;
#X connect 5 8 6 0;
#X connect 6 0 14 0;
#X connect 7 0 17 0;
#X connect 8 0 9 0;
#X connect 9 0 17 0;
#X connect 10 0 15 1;
#X connect 10 0 16 1;
#X connect 12 0 11 0;
#X connect 13 0 8 0;
#X connect 14 0 17 0;
#X connect 15 0 8 1;
#X connect 16 0 20 0;
#X connect 19 0 20 0;
#X connect 20 0 21 0;
#X connect 20 1 21 1;
#X connect 20 2 21 2;
#X connect 20 3 21 3;
#X connect 20 4 21 4;
#X connect 21 0 22 0;
#X connect 22 0 17 0;
