#N canvas 418 168 450 300 10;
#X obj 95 116 readsf~;
#X obj 221 108 bng 15 250 50 0 empty empty empty 17 7 0 10 #fcfcfc
#000000 #000000;
#X obj 144 215 bng 15 250 50 0 empty empty empty 17 7 0 10 #fcfcfc
#000000 #000000;
#X obj 77 70 r \$1-readsf-\$2-inlet;
#X obj 169 185 s \$1-readsf-\$2-done;
#X obj 99 157 *~ \$3;
#X obj 99 188 outlet~;
#X connect 0 0 5 0;
#X connect 0 1 2 0;
#X connect 0 1 4 0;
#X connect 3 0 0 0;
#X connect 3 0 1 0;
#X connect 5 0 6 0;
