#N canvas -506 131 1920 1026 10;
#X obj 1411 473 bng 15 250 50 0 empty empty empty 17 7 0 10 #fcfcfc
#000000 #000000;
#X obj 1411 495 f;
#X obj 1445 496 + 1;
#X floatatom 1466 425 5 0 0 0 - - - 0;
#X obj 1717 404 tgl 15 0 empty empty empty 17 7 0 10 #ff8300 #000000
#000000 0 1;
#X obj 1733 404 tgl 15 0 empty empty empty 17 7 0 10 #ff8300 #ff0400
#000000 0 1;
#X obj 1411 425 loadbang;
#X obj 1765 404 tgl 15 0 empty empty empty 17 7 0 10 #ff8300 #000000
#000000 0 1;
#X obj 1749 404 tgl 15 0 empty empty empty 17 7 0 10 #ff8300 #000000
#000000 0 1;
#X obj 1781 404 tgl 15 0 empty empty empty 17 7 0 10 #ff8300 #000000
#000000 0 1;
#X obj 1813 404 tgl 15 0 empty empty empty 17 7 0 10 #ff8300 #000000
#000000 0 1;
#X obj 1829 404 tgl 15 0 empty empty empty 17 7 0 10 #ff8300 #000000
#000000 0 1;
#X obj 1797 404 tgl 15 0 empty empty empty 17 7 0 10 #ff8300 #000000
#000000 0 1;
#X obj 1718 382 tgl 15 0 empty empty empty 17 7 0 10 #9c00ff #000000
#000000 0 1;
#X obj 1734 382 tgl 15 0 empty empty empty 17 7 0 10 #9c00ff #000000
#000000 0 1;
#X obj 1766 382 tgl 15 0 empty empty empty 17 7 0 10 #9c00ff #000000
#000000 0 1;
#X obj 1750 382 tgl 15 0 empty empty empty 17 7 0 10 #9c00ff #000000
#000000 0 1;
#X obj 1782 382 tgl 15 0 empty empty empty 17 7 0 10 #9c00ff #000000
#000000 0 1;
#X obj 1814 382 tgl 15 0 empty empty empty 17 7 0 10 #9c00ff #000000
#000000 0 1;
#X obj 1830 382 tgl 15 0 empty empty empty 17 7 0 10 #9c00ff #000000
#000000 0 1;
#X obj 1798 382 tgl 15 0 empty empty empty 17 7 0 10 #9c00ff #000000
#000000 0 1;
#X obj 1868 378 tgl 15 0 empty empty empty 17 7 0 10 #00ff04 #000000
#000000 0 1;
#X obj 1884 378 tgl 15 0 empty empty empty 17 7 0 10 #00ff04 #000000
#000000 0 1;
#X obj 1918 378 tgl 15 0 empty empty empty 17 7 0 10 #00ff04 #000000
#000000 0 1;
#X obj 1901 378 tgl 15 0 empty empty empty 17 7 0 10 #00ff04 #000000
#000000 0 1;
#X obj 1935 378 tgl 15 0 empty empty empty 17 7 0 10 #00ff04 #000000
#000000 0 1;
#X obj 1966 378 tgl 15 0 empty empty empty 17 7 0 10 #00ff04 #000000
#000000 0 1;
#X obj 1982 378 tgl 15 0 empty empty empty 17 7 0 10 #00ff04 #000000
#000000 0 1;
#X obj 1951 378 tgl 15 0 empty empty empty 17 7 0 10 #00ff04 #000000
#000000 0 1;
#X obj 1866 402 tgl 15 0 empty empty empty 17 7 0 10 #0400ff #000000
#000000 0 1;
#X obj 1882 402 tgl 15 0 empty empty empty 17 7 0 10 #0400ff #000000
#000000 0 1;
#X obj 1915 402 tgl 15 0 empty empty empty 17 7 0 10 #fcfcfc #000000
#000000 0 1;
#X obj 1898 402 tgl 15 0 empty empty empty 17 7 0 10 #fcfcfc #000000
#000000 0 1;
#X obj 1933 402 tgl 15 0 empty empty empty 17 7 0 10 #fcfcfc #000000
#000000 0 1;
#X obj 1964 402 tgl 15 0 empty empty empty 17 7 0 10 #fcfcfc #000000
#000000 0 1;
#X obj 1980 402 tgl 15 0 empty empty empty 17 7 0 10 #fcfcfc #000000
#000000 0 1;
#X obj 1951 402 tgl 15 0 empty empty empty 17 7 0 10 #fcfcfc #000000
#000000 0 1;
#N canvas -270 73 1920 1026 sequencer 1;
#X obj 19 191 select 0 1 2 3 4 5 6 7;
#X obj 67 215 bng 15 250 50 0 empty empty empty 17 7 0 10 #fcfcfc #000000
#000000;
#X obj 36 214 bng 15 250 50 0 empty empty empty 17 7 0 10 #fcfcfc #000000
#000000;
#X obj 51 215 bng 15 250 50 0 empty empty empty 17 7 0 10 #fcfcfc #000000
#000000;
#X obj 21 214 bng 15 250 50 0 empty empty empty 17 7 0 10 #fcfcfc #000000
#000000;
#X obj 82 215 bng 15 250 50 0 empty empty empty 17 7 0 10 #fcfcfc #000000
#000000;
#X obj 97 216 bng 15 250 50 0 empty empty empty 17 7 0 10 #fcfcfc #000000
#000000;
#X obj 113 216 bng 15 250 50 0 empty empty empty 17 7 0 10 #fcfcfc
#000000 #000000;
#X obj 306 259 spigot;
#X obj 51 264 spigot;
#X obj 65 391 readsf~;
#X obj 129 218 bng 15 250 50 0 empty empty empty 17 7 0 10 #fcfcfc
#000000 #000000;
#X obj 134 261 spigot;
#X obj 93 262 spigot;
#X obj 180 261 spigot;
#X obj 265 260 spigot;
#X obj 222 261 spigot;
#X obj 171 389 readsf~;
#X obj 348 392 readsf~;
#X obj 9 306 spigot;
#X obj 306 284 spigot;
#X obj 54 287 spigot;
#X obj 138 286 spigot;
#X obj 96 287 spigot;
#X obj 180 286 spigot;
#X obj 265 285 spigot;
#X obj 222 286 spigot;
#X obj 9 263 spigot;
#X obj 665 219 spigot;
#X obj 413 222 spigot;
#X obj 495 222 spigot;
#X obj 456 221 spigot;
#X obj 538 223 spigot;
#X obj 624 220 spigot;
#X obj 581 221 spigot;
#X obj 367 248 spigot;
#X obj 665 244 spigot;
#X obj 413 247 spigot;
#X obj 501 246 spigot;
#X obj 456 246 spigot;
#X obj 539 246 spigot;
#X obj 624 245 spigot;
#X obj 581 246 spigot;
#X obj 367 223 spigot;
#X obj 466 390 readsf~;
#X obj 15 142 inlet;
#X obj 128 139 inlet;
#X obj 166 139 inlet;
#X obj 206 139 inlet;
#X obj 88 139 inlet;
#X obj 169 443 outlet~;
#X obj 64 451 outlet~;
#X obj 464 441 outlet~;
#X obj 348 445 outlet~;
#X obj 245 138 inlet;
#X obj 283 138 inlet;
#X obj 320 138 inlet;
#X obj 359 138 inlet;
#X obj 445 138 inlet;
#X obj 483 138 inlet;
#X obj 523 138 inlet;
#X obj 405 138 inlet;
#X obj 562 137 inlet;
#X obj 600 137 inlet;
#X obj 637 137 inlet;
#X obj 676 137 inlet;
#X obj 762 137 inlet;
#X obj 800 137 inlet;
#X obj 840 137 inlet;
#X obj 722 137 inlet;
#X obj 879 136 inlet;
#X obj 917 136 inlet;
#X obj 954 136 inlet;
#X obj 993 136 inlet;
#X obj 1075 136 inlet;
#X obj 1113 136 inlet;
#X obj 1153 136 inlet;
#X obj 1035 136 inlet;
#X obj 1192 135 inlet;
#X obj 1230 135 inlet;
#X obj 1267 135 inlet;
#X obj 1306 135 inlet;
#X obj -38 330 s bang;
#X msg 171 361 open B.wav \, 1;
#X msg 349 368 open C.wav \, 1;
#X msg 466 368 open D.wav \, 1;
#X msg 65 360 open A.wav \, 1;
#X obj 278 620 *~, f 2;
#X obj 1402 136 inlet;
#X obj 1440 136 inlet;
#X obj 1480 136 inlet;
#X obj 1362 136 inlet;
#X obj 1519 135 inlet;
#X obj 1557 135 inlet;
#X obj 1594 135 inlet;
#X obj 1633 135 inlet;
#X obj 1719 135 inlet;
#X obj 1757 135 inlet;
#X obj 1797 135 inlet;
#X obj 1679 135 inlet;
#X obj 1836 134 inlet;
#X obj 1874 134 inlet;
#X obj 1911 134 inlet;
#X obj 1950 135 inlet;
#X obj 2036 134 inlet;
#X obj 2074 134 inlet;
#X obj 2114 134 inlet;
#X obj 1996 134 inlet;
#X obj 2153 133 inlet;
#X obj 2191 133 inlet;
#X obj 2228 133 inlet;
#X obj 2267 133 inlet;
#X obj 2349 133 inlet;
#X obj 2387 133 inlet;
#X obj 2427 133 inlet;
#X obj 2309 133 inlet;
#X obj 2466 132 inlet;
#X obj 2504 132 inlet;
#X obj 2541 132 inlet;
#X obj 2580 132 inlet;
#X obj 1589 198 spigot;
#X obj 1337 200 spigot;
#X obj 1419 200 spigot;
#X obj 1380 199 spigot;
#X obj 1462 201 spigot;
#X obj 1548 198 spigot;
#X obj 1505 199 spigot;
#X obj 1643 198 spigot;
#X obj 1941 194 spigot;
#X obj 1689 197 spigot;
#X obj 1777 196 spigot;
#X obj 1732 196 spigot;
#X obj 1818 195 spigot;
#X obj 1900 195 spigot;
#X obj 1857 196 spigot;
#X obj 1291 201 spigot;
#X obj -4 238 s b1;
#X obj 27 236 s b2;
#X obj 56 237 s b3;
#X obj 88 237 s b4;
#X obj 118 237 s b5;
#X obj 154 236 s b6;
#X obj 190 237 s b7;
#X obj 224 237 s b8;
#X obj 1291 176 r b1;
#X obj 1338 175 r b2;
#X obj 1381 174 r b3;
#X obj 1419 174 r b4;
#X obj 1462 176 r b5;
#X obj 1505 175 r b6;
#X obj 1547 171 r b7;
#X obj 1589 170 r b8;
#X obj 1649 169 r b1;
#X obj 1696 168 r b2;
#X obj 1739 167 r b3;
#X obj 1777 167 r b4;
#X obj 1820 169 r b5;
#X obj 1863 168 r b6;
#X obj 1905 164 r b7;
#X obj 1947 163 r b8;
#X obj 2291 191 spigot;
#X obj 2039 193 spigot;
#X obj 2121 193 spigot;
#X obj 2082 192 spigot;
#X obj 2164 194 spigot;
#X obj 2250 191 spigot;
#X obj 2207 192 spigot;
#X obj 2345 191 spigot;
#X obj 2643 187 spigot;
#X obj 2391 190 spigot;
#X obj 2479 189 spigot;
#X obj 2434 189 spigot;
#X obj 2520 188 spigot;
#X obj 2602 188 spigot;
#X obj 2559 189 spigot;
#X obj 1993 194 spigot;
#X obj 1993 169 r b1;
#X obj 2040 168 r b2;
#X obj 2083 167 r b3;
#X obj 2121 167 r b4;
#X obj 2164 169 r b5;
#X obj 2207 168 r b6;
#X obj 2249 164 r b7;
#X obj 2291 163 r b8;
#X obj 2351 162 r b1;
#X obj 2398 161 r b2;
#X obj 2441 160 r b3;
#X obj 2479 160 r b4;
#X obj 2522 162 r b5;
#X obj 2565 161 r b6;
#X obj 2607 157 r b7;
#X obj 2649 156 r b8;
#X obj 1351 344 readsf~;
#X obj 1457 350 readsf~;
#X obj 1635 354 readsf~;
#X obj 1752 351 readsf~;
#X obj 1456 376 outlet~;
#X obj 1351 371 outlet~;
#X obj 1751 382 outlet~;
#X obj 1635 379 outlet~;
#X msg 1635 332 open C.wav \, 1;
#X msg 1752 329 open D.wav \, 1;
#X obj 1276 570 *~, f 2;
#X msg 1351 529 \$1 100;
#X obj 1351 503 tgl 15 0 empty empty empty 17 7 0 10 #fcfcfc #000000
#000000 0 1;
#X obj 1351 555 line~;
#X obj 1366 472 bng 15 250 50 0 empty empty empty 17 7 0 10 #fcfcfc
#000000 #000000;
#X obj 1367 424 bng 15 250 50 0 empty empty empty 17 7 0 10 #fcfcfc
#000000 #000000;
#X obj 1388 581 *~, f 2;
#X msg 1463 540 \$1 100;
#X obj 1463 514 tgl 15 0 empty empty empty 17 7 0 10 #fcfcfc #000000
#000000 0 1;
#X obj 1463 566 line~;
#X obj 1478 483 bng 15 250 50 0 empty empty empty 17 7 0 10 #fcfcfc
#000000 #000000;
#X obj 1479 435 bng 15 250 50 0 empty empty empty 17 7 0 10 #fcfcfc
#000000 #000000;
#X obj 1275 545 osc~ 175;
#X obj 1387 556 osc~ 209;
#X obj 1560 593 *~, f 2;
#X msg 1635 552 \$1 100;
#X obj 1635 526 tgl 15 0 empty empty empty 17 7 0 10 #fcfcfc #000000
#000000 0 1;
#X obj 1635 578 line~;
#X obj 1650 495 bng 15 250 50 0 empty empty empty 17 7 0 10 #fcfcfc
#000000 #000000;
#X obj 1651 447 bng 15 250 50 0 empty empty empty 17 7 0 10 #fcfcfc
#000000 #000000;
#X obj 1559 568 osc~ 250;
#X obj 1679 603 *~, f 2;
#X msg 1754 562 \$1 100;
#X obj 1754 536 tgl 15 0 empty empty empty 17 7 0 10 #fcfcfc #000000
#000000 0 1;
#X obj 1754 588 line~;
#X obj 1769 505 bng 15 250 50 0 empty empty empty 17 7 0 10 #fcfcfc
#000000 #000000;
#X obj 1770 457 bng 15 250 50 0 empty empty empty 17 7 0 10 #fcfcfc
#000000 #000000;
#X obj 1678 578 osc~ 297;
#X obj 1769 479 delay 50;
#X obj 1366 446 delay 300;
#X obj 1478 457 delay 300;
#X obj 1650 469 delay 300;
#X obj 1275 596 *~ 0.05;
#X obj 1387 607 *~ 0.05;
#X obj 1559 621 *~ 0.05;
#X obj 1680 630 *~ 0.05;
#X msg 1351 322 open kick.wav \, 1;
#X msg 1457 322 open rim.wav \, 1;
#X obj 464 520 bp~, f 6;
#X obj 464 550 bp~, f 6;
#X floatatom 541 504 5 0 0 0 - - - 0;
#X msg 480 495 72;
#X obj 480 471 loadbang;
#N canvas -284 170 1920 1026 vspigot 0;
#X obj 86 47 inlet~;
#X obj 217 38 inlet;
#X obj 141 211 outlet~;
#X obj 224 213 outlet~;
#X obj 191 98 == 0;
#X obj 243 98 == 1;
#X obj 147 51 inlet~;
#X obj 147 157 *~ 0.001;
#X obj 223 155 *~ 0.001;
#X connect 0 0 7 0;
#X connect 1 0 4 0;
#X connect 1 0 5 0;
#X connect 4 0 7 1;
#X connect 5 0 8 1;
#X connect 6 0 8 0;
#X connect 7 0 2 0;
#X connect 8 0 3 0;
#X restore 281 747 pd vspigot;
#X obj 379 732 tgl 15 0 empty empty empty 17 7 0 10 #fcfcfc #000000
#000000 0 1;
#X obj 575 678 loadbang;
#X obj 576 725 s bela_setDigital;
#X obj 464 604 * 0.01;
#X obj 1386 725 dac~ 4;
#X obj 464 584 env~ 4096 2048;
#X msg 308 542 250;
#X obj 278 577 osc~;
#X obj 65 420 *~ 0.75;
#X obj 349 418 *~ 0.75;
#X obj 170 417 *~ 0.75;
#X obj 465 413 *~ 0.75;
#X obj 278 868 dac~ 3;
#X obj 379 706 r bela_digitalIn18;
#X msg 574 703 in 18;
#X obj 280 644 *~ 0.01;
#X msg 243 542 150;
#X msg 275 541 200;
#X msg 349 549 300;
#X obj 466 628 line 1 100;
#X connect 0 0 4 0;
#X connect 0 1 2 0;
#X connect 0 2 3 0;
#X connect 0 3 1 0;
#X connect 0 4 5 0;
#X connect 0 5 6 0;
#X connect 0 6 7 0;
#X connect 0 7 11 0;
#X connect 1 0 12 0;
#X connect 1 0 22 0;
#X connect 1 0 30 0;
#X connect 1 0 38 0;
#X connect 1 0 139 0;
#X connect 2 0 9 0;
#X connect 2 0 21 0;
#X connect 2 0 29 0;
#X connect 2 0 37 0;
#X connect 2 0 137 0;
#X connect 3 0 13 0;
#X connect 3 0 23 0;
#X connect 3 0 31 0;
#X connect 3 0 39 0;
#X connect 3 0 138 0;
#X connect 4 0 19 0;
#X connect 4 0 27 0;
#X connect 4 0 43 0;
#X connect 4 0 35 0;
#X connect 4 0 136 0;
#X connect 5 0 14 0;
#X connect 5 0 24 0;
#X connect 5 0 32 0;
#X connect 5 0 40 0;
#X connect 5 0 140 0;
#X connect 6 0 16 0;
#X connect 6 0 26 0;
#X connect 6 0 34 0;
#X connect 6 0 42 0;
#X connect 6 0 141 0;
#X connect 7 0 15 0;
#X connect 7 0 25 0;
#X connect 7 0 33 0;
#X connect 7 0 41 0;
#X connect 7 0 142 0;
#X connect 8 0 86 0;
#X connect 9 0 86 0;
#X connect 10 0 254 0;
#X connect 11 0 8 0;
#X connect 11 0 20 0;
#X connect 11 0 28 0;
#X connect 11 0 36 0;
#X connect 11 0 143 0;
#X connect 12 0 86 0;
#X connect 13 0 86 0;
#X connect 14 0 86 0;
#X connect 15 0 86 0;
#X connect 16 0 86 0;
#X connect 17 0 256 0;
#X connect 18 0 255 0;
#X connect 19 0 83 0;
#X connect 20 0 83 0;
#X connect 21 0 83 0;
#X connect 22 0 83 0;
#X connect 23 0 83 0;
#X connect 24 0 83 0;
#X connect 25 0 83 0;
#X connect 26 0 83 0;
#X connect 27 0 86 0;
#X connect 27 0 82 0;
#X connect 28 0 84 0;
#X connect 29 0 84 0;
#X connect 30 0 84 0;
#X connect 31 0 84 0;
#X connect 32 0 84 0;
#X connect 33 0 84 0;
#X connect 34 0 84 0;
#X connect 35 0 85 0;
#X connect 36 0 85 0;
#X connect 37 0 85 0;
#X connect 38 0 85 0;
#X connect 39 0 85 0;
#X connect 40 0 85 0;
#X connect 41 0 85 0;
#X connect 42 0 85 0;
#X connect 43 0 84 0;
#X connect 44 0 257 0;
#X connect 45 0 0 0;
#X connect 46 0 9 1;
#X connect 47 0 13 1;
#X connect 48 0 12 1;
#X connect 49 0 27 1;
#X connect 54 0 14 1;
#X connect 55 0 16 1;
#X connect 56 0 15 1;
#X connect 57 0 8 1;
#X connect 58 0 21 1;
#X connect 59 0 23 1;
#X connect 60 0 22 1;
#X connect 61 0 19 1;
#X connect 62 0 24 1;
#X connect 63 0 26 1;
#X connect 64 0 25 1;
#X connect 65 0 20 1;
#X connect 66 0 29 1;
#X connect 67 0 31 1;
#X connect 68 0 30 1;
#X connect 69 0 43 1;
#X connect 70 0 32 1;
#X connect 71 0 34 1;
#X connect 72 0 33 1;
#X connect 73 0 28 1;
#X connect 74 0 37 1;
#X connect 75 0 39 1;
#X connect 76 0 38 1;
#X connect 77 0 35 1;
#X connect 78 0 40 1;
#X connect 79 0 42 1;
#X connect 80 0 41 1;
#X connect 81 0 36 1;
#X connect 83 0 17 0;
#X connect 83 0 263 0;
#X connect 84 0 18 0;
#X connect 84 0 252 0;
#X connect 85 0 44 0;
#X connect 85 0 264 0;
#X connect 86 0 10 0;
#X connect 86 0 262 0;
#X connect 87 0 261 0;
#X connect 88 0 121 1;
#X connect 89 0 123 1;
#X connect 90 0 122 1;
#X connect 91 0 135 1;
#X connect 92 0 124 1;
#X connect 93 0 126 1;
#X connect 94 0 125 1;
#X connect 95 0 120 1;
#X connect 96 0 129 1;
#X connect 97 0 131 1;
#X connect 98 0 130 1;
#X connect 99 0 127 1;
#X connect 100 0 132 1;
#X connect 101 0 134 1;
#X connect 102 0 133 1;
#X connect 103 0 128 1;
#X connect 104 0 161 1;
#X connect 105 0 162 0;
#X connect 106 0 162 1;
#X connect 107 0 175 1;
#X connect 108 0 164 1;
#X connect 109 0 166 1;
#X connect 110 0 165 1;
#X connect 111 0 160 1;
#X connect 112 0 169 1;
#X connect 113 0 171 1;
#X connect 114 0 170 1;
#X connect 115 0 167 1;
#X connect 116 0 172 1;
#X connect 117 0 174 1;
#X connect 118 0 173 1;
#X connect 119 0 168 1;
#X connect 120 0 238 0;
#X connect 121 0 238 0;
#X connect 122 0 238 0;
#X connect 123 0 238 0;
#X connect 124 0 238 0;
#X connect 125 0 238 0;
#X connect 126 0 238 0;
#X connect 127 0 239 0;
#X connect 128 0 239 0;
#X connect 129 0 239 0;
#X connect 130 0 239 0;
#X connect 131 0 239 0;
#X connect 132 0 239 0;
#X connect 133 0 239 0;
#X connect 134 0 239 0;
#X connect 135 0 238 0;
#X connect 144 0 135 0;
#X connect 145 0 121 0;
#X connect 146 0 123 0;
#X connect 147 0 122 0;
#X connect 148 0 124 0;
#X connect 149 0 126 0;
#X connect 150 0 125 0;
#X connect 151 0 120 0;
#X connect 152 0 127 0;
#X connect 153 0 129 0;
#X connect 154 0 131 0;
#X connect 155 0 130 0;
#X connect 156 0 132 0;
#X connect 157 0 134 0;
#X connect 158 0 133 0;
#X connect 159 0 128 0;
#X connect 176 0 175 0;
#X connect 177 0 161 0;
#X connect 178 0 163 0;
#X connect 179 0 162 0;
#X connect 180 0 164 0;
#X connect 181 0 166 0;
#X connect 182 0 165 0;
#X connect 183 0 160 0;
#X connect 184 0 167 0;
#X connect 185 0 169 0;
#X connect 186 0 171 0;
#X connect 187 0 170 0;
#X connect 188 0 172 0;
#X connect 189 0 174 0;
#X connect 190 0 173 0;
#X connect 191 0 168 0;
#X connect 192 0 197 0;
#X connect 193 0 196 0;
#X connect 194 0 199 0;
#X connect 195 0 198 0;
#X connect 200 0 194 0;
#X connect 200 0 221 0;
#X connect 200 0 218 0;
#X connect 201 0 195 0;
#X connect 201 0 228 0;
#X connect 201 0 225 0;
#X connect 202 0 234 0;
#X connect 203 0 205 0;
#X connect 204 0 203 0;
#X connect 205 0 202 1;
#X connect 206 0 204 0;
#X connect 207 0 231 0;
#X connect 208 0 235 0;
#X connect 209 0 211 0;
#X connect 210 0 209 0;
#X connect 211 0 208 1;
#X connect 212 0 210 0;
#X connect 213 0 232 0;
#X connect 214 0 202 0;
#X connect 215 0 208 0;
#X connect 216 0 236 0;
#X connect 217 0 219 0;
#X connect 218 0 217 0;
#X connect 219 0 216 1;
#X connect 220 0 218 0;
#X connect 221 0 233 0;
#X connect 222 0 216 0;
#X connect 223 0 237 0;
#X connect 224 0 226 0;
#X connect 225 0 224 0;
#X connect 226 0 223 1;
#X connect 227 0 225 0;
#X connect 228 0 230 0;
#X connect 229 0 223 0;
#X connect 230 0 227 0;
#X connect 231 0 206 0;
#X connect 232 0 212 0;
#X connect 233 0 220 0;
#X connect 234 0 250 0;
#X connect 235 0 250 0;
#X connect 236 0 250 0;
#X connect 237 0 250 0;
#X connect 238 0 192 0;
#X connect 238 0 204 0;
#X connect 238 0 207 0;
#X connect 239 0 193 0;
#X connect 239 0 213 0;
#X connect 239 0 210 0;
#X connect 240 0 241 0;
#X connect 241 0 251 0;
#X connect 242 0 241 2;
#X connect 242 0 240 2;
#X connect 243 0 240 1;
#X connect 244 0 243 0;
#X connect 245 0 258 0;
#X connect 245 1 258 0;
#X connect 246 0 245 2;
#X connect 247 0 260 0;
#X connect 249 0 265 0;
#X connect 251 0 249 0;
#X connect 252 0 253 0;
#X connect 253 0 87 0;
#X connect 254 0 51 0;
#X connect 254 0 240 0;
#X connect 254 0 245 1;
#X connect 255 0 53 0;
#X connect 255 0 240 0;
#X connect 255 0 245 1;
#X connect 256 0 50 0;
#X connect 256 0 240 0;
#X connect 256 0 245 1;
#X connect 257 0 52 0;
#X connect 257 0 240 0;
#X connect 257 0 245 1;
#X connect 259 0 246 0;
#X connect 260 0 248 0;
#X connect 261 0 245 0;
#X connect 262 0 253 0;
#X connect 263 0 253 0;
#X connect 264 0 253 0;
#X connect 265 0 87 1;
#X restore 1488 537 pd sequencer;
#X f 192;
#X obj 145 158 loadbang;
#X obj 145 188 tgl 15 0 empty empty empty 17 7 0 10 #fcfcfc #000000
#000000 0 1;
#X obj 151 212 metro 200;
#X obj 145 294 tabread bela_multiplexer;
#X msg 145 275 0;
#X obj 160 344 tabread bela_multiplexer;
#X obj 145 246 t a a a a a a a a a a a a a a a a;
#X obj 171 394 tabread bela_multiplexer;
#X obj 185 450 tabread bela_multiplexer;
#X obj 196 504 tabread bela_multiplexer;
#X obj 209 556 tabread bela_multiplexer;
#X obj 225 609 tabread bela_multiplexer;
#X obj 236 669 tabread bela_multiplexer;
#X msg 209 533 9;
#X msg 160 321 8;
#X msg 171 371 16;
#X msg 196 481 1;
#X msg 225 586 17;
#X msg 185 427 24;
#X msg 236 646 25;
#X obj 1411 524 % 8;
#X obj 247 736 tabread bela_multiplexer;
#X msg 247 713 2;
#X obj 265 799 tabread bela_multiplexer;
#X msg 265 769 10;
#X obj 276 851 tabread bela_multiplexer;
#X msg 276 828 18;
#X obj 295 914 tabread bela_multiplexer;
#X msg 295 891 26;
#X obj 305 964 tabread bela_multiplexer;
#X obj 319 1020 tabread bela_multiplexer;
#X obj 329 1079 tabread bela_multiplexer;
#X obj 343 1142 tabread bela_multiplexer;
#X msg 305 941 3;
#X msg 319 997 11;
#X msg 329 1056 19;
#X msg 343 1118 27;
#X obj 502 811 expr if( $f1>0.15 == $f1<0.17 \, 1 \, 0);
#X obj 500 871 expr if( $f1>0.15 == $f1<0.17 \, 1 \, 0);
#X obj 497 927 expr if( $f1>0.15 == $f1<0.17 \, 1 \, 0);
#X obj 502 1033 expr if( $f1>0.15 == $f1<0.17 \, 1 \, 0);
#X obj 517 1083 expr if( $f1>0.15 == $f1<0.17 \, 1 \, 0);
#X obj 509 1124 expr if( $f1>0.15 == $f1<0.17 \, 1 \, 0);
#X obj 735 753 expr if( $f1>0.3 == $f1<0.32 \, 1 \, 0);
#X obj 742 809 expr if( $f1>0.3 == $f1<0.32 \, 1 \, 0);
#X obj 741 869 expr if( $f1>0.3 == $f1<0.32 \, 1 \, 0);
#X obj 741 926 expr if( $f1>0.3 == $f1<0.32 \, 1 \, 0);
#X obj 746 985 expr if( $f1>0.3 == $f1<0.32 \, 1 \, 0);
#X obj 745 1035 expr if( $f1>0.3 == $f1<0.32 \, 1 \, 0);
#X obj 735 1082 expr if( $f1>0.3 == $f1<0.32 \, 1 \, 0);
#X obj 734 1126 expr if( $f1>0.3 == $f1<0.32 \, 1 \, 0);
#X obj 2076 29 pack f f f f f f f f;
#X obj 2078 58 print -n;
#X obj 861 257 pack f f f f f f f f;
#X obj 859 286 print -n;
#X obj 502 782 s pc1;
#X obj 735 780 s dk1;
#X obj 502 836 s pc2;
#X obj 743 834 s dk2;
#X obj 499 897 s pc3;
#X obj 740 895 s dk3;
#X obj 497 953 s pc4;
#X obj 741 951 s dk4;
#X obj 501 750 expr if( $f1>0.15 == $f1<0.17 \, 1 \, 0);
#X obj 502 1011 s pc5;
#X obj 746 1009 s dk5;
#X obj 502 1059 s pc6;
#X obj 746 1057 s dk6;
#X obj 516 1104 s pc7;
#X obj 760 1102 s dk7;
#X obj 510 1148 s pc8;
#X obj 749 1157 s dk8;
#X obj 500 980 expr if( $f1>0.15 == $f1<0.17 \, 1 \, 0);
#X text 1693 401 A;
#X obj 425 334 s pA8;
#X obj 422 378 s pA7;
#X obj 423 422 s pA6;
#X obj 422 479 s pA5;
#X obj 421 533 s pA4;
#X obj 423 584 s pA3;
#X obj 422 632 s pA2;
#X obj 417 688 s pA1;
#X obj 657 334 s pB8;
#X obj 656 379 s pB7;
#X obj 666 425 s pB6;
#X obj 666 481 s pB5;
#X obj 661 533 s pB4;
#X obj 664 583 s pB3;
#X obj 660 633 s pB2;
#X obj 656 688 s pB1;
#X obj 893 332 s pC8;
#X obj 892 377 s pC7;
#X obj 893 417 s pC6;
#X obj 890 475 s pC5;
#X obj 887 532 s pC4;
#X obj 889 583 s pC3;
#X obj 890 637 s pC2;
#X obj 883 690 s pC1;
#X text 1692 380 B;
#X text 2007 375 C;
#X text 2006 400 D;
#X obj 1831 30 r pA8;
#X obj 1835 13 r pB8;
#X obj 1657 50 r pA7;
#X obj 1744 16 r pB7;
#X obj 1801 115 r pA6;
#X obj 1806 93 r pB6;
#X obj 1784 153 r pA5;
#X obj 1788 134 r pB5;
#X obj 1768 191 r pA4;
#X obj 1771 170 r pB4;
#X obj 1749 232 r pA3;
#X obj 1753 214 r pB3;
#X obj 1733 273 r pA2;
#X obj 1734 253 r pB2;
#X obj 1718 323 r pA1;
#X obj 1717 295 r pB1;
#X obj 1125 331 s pD8;
#X obj 1129 374 s pD7;
#X obj 1134 424 s pD6;
#X obj 1133 478 s pD5;
#X obj 1129 530 s pD4;
#X obj 1131 581 s pD3;
#X obj 1130 629 s pD2;
#X obj 1124 685 s pD1;
#X obj 1872 43 r pD1;
#X obj 1882 84 r pD2;
#X obj 1901 113 r pD3;
#X obj 1917 140 r pD4, f 6;
#X obj 1937 169 r pD5, f 6;
#X obj 1955 194 r pD6;
#X obj 2084 199 r pD7;
#X obj 1983 258 r pD8;
#X obj 1868 192 r pC1;
#X obj 1884 213 r pC2;
#X obj 1901 232 r pC3;
#X obj 1918 253 r pC4;
#X obj 1936 273 r pC5;
#X obj 1951 295 r pC6;
#X obj 2018 279 r pC7;
#X obj 1981 340 r pC8;
#X obj 2116 396 tgl 15 0 empty empty empty 17 7 0 10 #ff8300 #000000
#000000 0 1;
#X obj 2132 396 tgl 15 0 empty empty empty 17 7 0 10 #ff8300 #ff0400
#000000 0 1;
#X obj 2164 396 tgl 15 0 empty empty empty 17 7 0 10 #ff8300 #000000
#000000 0 1;
#X obj 2148 396 tgl 15 0 empty empty empty 17 7 0 10 #ff8300 #000000
#000000 0 1;
#X obj 2180 396 tgl 15 0 empty empty empty 17 7 0 10 #ff8300 #000000
#000000 0 1;
#X obj 2212 396 tgl 15 0 empty empty empty 17 7 0 10 #ff8300 #000000
#000000 0 1;
#X obj 2228 396 tgl 15 0 empty empty empty 17 7 0 10 #ff8300 #000000
#000000 0 1;
#X obj 2196 396 tgl 15 0 empty empty empty 17 7 0 10 #ff8300 #000000
#000000 0 1;
#X obj 2116 372 tgl 15 0 empty empty empty 17 7 0 10 #9c00ff #000000
#000000 0 1;
#X obj 2132 372 tgl 15 0 empty empty empty 17 7 0 10 #9c00ff #000000
#000000 0 1;
#X obj 2164 372 tgl 15 0 empty empty empty 17 7 0 10 #9c00ff #000000
#000000 0 1;
#X obj 2148 372 tgl 15 0 empty empty empty 17 7 0 10 #9c00ff #000000
#000000 0 1;
#X obj 2180 372 tgl 15 0 empty empty empty 17 7 0 10 #9c00ff #000000
#000000 0 1;
#X obj 2212 372 tgl 15 0 empty empty empty 17 7 0 10 #9c00ff #000000
#000000 0 1;
#X obj 2228 372 tgl 15 0 empty empty empty 17 7 0 10 #9c00ff #000000
#000000 0 1;
#X obj 2196 372 tgl 15 0 empty empty empty 17 7 0 10 #9c00ff #000000
#000000 0 1;
#X obj 1411 449 metro 800;
#X obj 1447 321 tgl 15 0 empty empty empty 17 7 0 10 #fcfcfc #000000
#000000 0 1;
#X obj 2063 799 dac~ 1 2;
#X obj 350 35 snapshot~;
#X obj 561 64 snapshot~;
#X obj 853 83 snapshot~;
#X obj 944 82 snapshot~;
#X obj 425 313 expr if( $f1>0.1 == $f1<0.2 \, 1 \, 0);
#X obj 422 357 expr if( $f1>0.1 == $f1<0.2 \, 1 \, 0);
#X obj 425 399 expr if( $f1>0.1 == $f1<0.2 \, 1 \, 0);
#X obj 424 455 expr if( $f1>0.1 == $f1<0.2 \, 1 \, 0);
#X obj 420 508 expr if( $f1>0.1 == $f1<0.2 \, 1 \, 0);
#X obj 422 559 expr if( $f1>0.1 == $f1<0.2 \, 1 \, 0);
#X obj 422 617 expr if( $f1>0.1 == $f1<0.2 \, 1 \, 0);
#X obj 416 658 expr if( $f1>0.1 == $f1<0.2 \, 1 \, 0);
#X obj 657 311 expr if( $f1>0.3 == $f1<0.4 \, 1 \, 0);
#X obj 657 357 expr if( $f1>0.3 == $f1<0.4 \, 1 \, 0);
#X obj 667 400 expr if( $f1>0.3 == $f1<0.4 \, 1 \, 0);
#X obj 666 455 expr if( $f1>0.3 == $f1<0.4 \, 1 \, 0);
#X obj 662 506 expr if( $f1>0.3 == $f1<0.4 \, 1 \, 0);
#X obj 663 557 expr if( $f1>0.3 == $f1<0.4 \, 1 \, 0);
#X obj 662 607 expr if( $f1>0.3 == $f1<0.4 \, 1 \, 0);
#X obj 657 668 expr if( $f1>0.3 == $f1<0.4 \, 1 \, 0);
#X obj 893 309 expr if( $f1>0.5 == $f1<0.6 \, 1 \, 0);
#X obj 894 353 expr if( $f1>0.5 == $f1<0.6 \, 1 \, 0);
#X obj 891 396 expr if( $f1>0.5 == $f1<0.6 \, 1 \, 0);
#X obj 890 452 expr if( $f1>0.5 == $f1<0.6 \, 1 \, 0);
#X obj 888 505 expr if( $f1>0.5 == $f1<0.6 \, 1 \, 0);
#X obj 889 556 expr if( $f1>0.5 == $f1<0.6 \, 1 \, 0);
#X obj 891 605 expr if( $f1>0.5 == $f1<0.6 \, 1 \, 0);
#X obj 884 664 expr if( $f1>0.5 == $f1<0.6 \, 1 \, 0);
#X obj 1125 308 expr if( $f1>0.7 == $f1<0.8 \, 1 \, 0);
#X obj 1121 356 expr if( $f1>0.7 == $f1<0.8 \, 1 \, 0);
#X obj 1135 397 expr if( $f1>0.7 == $f1<0.8 \, 1 \, 0);
#X obj 1134 452 expr if( $f1>0.7 == $f1<0.8 \, 1 \, 0);
#X obj 1130 503 expr if( $f1>0.7 == $f1<0.8 \, 1 \, 0);
#X obj 1131 554 expr if( $f1>0.7 == $f1<0.8 \, 1 \, 0);
#X obj 1130 604 expr if( $f1>0.7 == $f1<0.8 \, 1 \, 0);
#X obj 1125 665 expr if( $f1>0.7 == $f1<0.8 \, 1 \, 0);
#X obj 761 42 adc~ 3 4 5 6 7 8 9 10;
#X obj 1054 77 snapshot~;
#X obj 1161 77 snapshot~;
#X obj 1252 71 snapshot~;
#X obj 1335 69 snapshot~;
#X obj 1833 666 *~ 0.8;
#X obj 1895 665 *~ 0.8;
#X obj 1960 665 *~ 0.8;
#X obj 2026 665 *~ 0.8;
#X connect 0 0 1 0;
#X connect 1 0 2 0;
#X connect 1 0 58 0;
#X connect 2 0 1 1;
#X connect 3 0 195 1;
#X connect 4 0 37 1;
#X connect 5 0 37 2;
#X connect 6 0 195 0;
#X connect 7 0 37 4;
#X connect 8 0 37 3;
#X connect 9 0 37 5;
#X connect 10 0 37 7;
#X connect 11 0 37 8;
#X connect 12 0 37 6;
#X connect 13 0 37 9;
#X connect 14 0 37 10;
#X connect 15 0 37 12;
#X connect 16 0 37 11;
#X connect 17 0 37 13;
#X connect 18 0 37 15;
#X connect 19 0 37 16;
#X connect 20 0 37 14;
#X connect 21 0 37 17;
#X connect 22 0 37 18;
#X connect 23 0 37 20;
#X connect 24 0 37 19;
#X connect 25 0 37 21;
#X connect 26 0 37 23;
#X connect 27 0 37 24;
#X connect 28 0 37 22;
#X connect 29 0 37 25;
#X connect 30 0 37 26;
#X connect 31 0 37 28;
#X connect 32 0 37 27;
#X connect 33 0 37 29;
#X connect 34 0 37 31;
#X connect 35 0 37 32;
#X connect 36 0 37 30;
#X connect 37 0 239 0;
#X connect 37 1 240 0;
#X connect 37 2 241 0;
#X connect 37 3 242 0;
#X connect 37 4 197 1;
#X connect 37 5 197 1;
#X connect 38 0 39 0;
#X connect 39 0 40 0;
#X connect 40 0 44 0;
#X connect 40 0 198 0;
#X connect 40 0 199 0;
#X connect 40 0 200 0;
#X connect 40 0 201 0;
#X connect 40 0 235 0;
#X connect 40 0 236 0;
#X connect 40 0 237 0;
#X connect 40 0 238 0;
#X connect 42 0 41 0;
#X connect 44 0 42 0;
#X connect 44 1 52 0;
#X connect 44 2 53 0;
#X connect 44 3 56 0;
#X connect 44 4 54 0;
#X connect 44 5 51 0;
#X connect 44 6 55 0;
#X connect 44 7 57 0;
#X connect 44 8 60 0;
#X connect 44 9 62 0;
#X connect 44 10 64 0;
#X connect 44 11 66 0;
#X connect 44 12 71 0;
#X connect 44 13 72 0;
#X connect 44 14 73 0;
#X connect 44 15 74 0;
#X connect 51 0 48 0;
#X connect 52 0 43 0;
#X connect 53 0 45 0;
#X connect 54 0 47 0;
#X connect 55 0 49 0;
#X connect 56 0 46 0;
#X connect 57 0 50 0;
#X connect 58 0 37 0;
#X connect 59 0 81 0;
#X connect 59 0 101 0;
#X connect 60 0 59 0;
#X connect 61 0 82 0;
#X connect 62 0 61 0;
#X connect 63 0 76 0;
#X connect 63 0 83 0;
#X connect 64 0 63 0;
#X connect 65 0 77 0;
#X connect 65 0 84 0;
#X connect 66 0 65 0;
#X connect 67 0 85 0;
#X connect 67 0 110 0;
#X connect 68 0 78 0;
#X connect 68 0 86 0;
#X connect 69 0 79 0;
#X connect 69 0 87 0;
#X connect 70 0 80 0;
#X connect 71 0 67 0;
#X connect 72 0 68 0;
#X connect 73 0 69 0;
#X connect 74 0 70 0;
#X connect 89 0 90 0;
#X connect 91 0 92 0;
#X connect 139 0 11 0;
#X connect 140 0 19 0;
#X connect 141 0 10 0;
#X connect 142 0 18 0;
#X connect 143 0 12 0;
#X connect 144 0 20 0;
#X connect 145 0 9 0;
#X connect 146 0 17 0;
#X connect 147 0 7 0;
#X connect 148 0 15 0;
#X connect 149 0 8 0;
#X connect 150 0 16 0;
#X connect 151 0 5 0;
#X connect 152 0 14 0;
#X connect 153 0 4 0;
#X connect 154 0 13 0;
#X connect 163 0 29 0;
#X connect 164 0 30 0;
#X connect 165 0 32 0;
#X connect 166 0 31 0;
#X connect 167 0 33 0;
#X connect 168 0 36 0;
#X connect 169 0 34 0;
#X connect 170 0 35 0;
#X connect 171 0 21 0;
#X connect 172 0 22 0;
#X connect 173 0 24 0;
#X connect 174 0 23 0;
#X connect 175 0 25 0;
#X connect 176 0 28 0;
#X connect 177 0 26 0;
#X connect 178 0 27 0;
#X connect 179 0 37 33;
#X connect 180 0 37 34;
#X connect 181 0 37 36;
#X connect 182 0 37 35;
#X connect 183 0 37 37;
#X connect 184 0 37 39;
#X connect 185 0 37 40;
#X connect 186 0 37 38;
#X connect 187 0 37 41;
#X connect 188 0 37 42;
#X connect 189 0 37 44;
#X connect 190 0 37 43;
#X connect 191 0 37 45;
#X connect 192 0 37 47;
#X connect 193 0 37 48;
#X connect 194 0 37 46;
#X connect 195 0 0 0;
#X connect 196 0 195 0;
#X connect 198 0 91 7;
#X connect 198 0 202 0;
#X connect 198 0 210 0;
#X connect 198 0 226 0;
#X connect 198 0 218 0;
#X connect 199 0 203 0;
#X connect 199 0 211 0;
#X connect 199 0 219 0;
#X connect 199 0 227 0;
#X connect 200 0 91 5;
#X connect 200 0 204 0;
#X connect 200 0 228 0;
#X connect 200 0 220 0;
#X connect 200 0 212 0;
#X connect 200 0 202 0;
#X connect 201 0 91 4;
#X connect 201 0 205 0;
#X connect 201 0 229 0;
#X connect 201 0 221 0;
#X connect 201 0 213 0;
#X connect 202 0 112 0;
#X connect 203 0 113 0;
#X connect 204 0 114 0;
#X connect 205 0 115 0;
#X connect 206 0 116 0;
#X connect 207 0 117 0;
#X connect 208 0 118 0;
#X connect 209 0 119 0;
#X connect 210 0 120 0;
#X connect 211 0 121 0;
#X connect 212 0 122 0;
#X connect 213 0 123 0;
#X connect 214 0 124 0;
#X connect 215 0 125 0;
#X connect 216 0 126 0;
#X connect 217 0 127 0;
#X connect 218 0 128 0;
#X connect 219 0 129 0;
#X connect 220 0 130 0;
#X connect 221 0 131 0;
#X connect 222 0 132 0;
#X connect 223 0 133 0;
#X connect 224 0 134 0;
#X connect 225 0 135 0;
#X connect 226 0 155 0;
#X connect 227 0 156 0;
#X connect 228 0 157 0;
#X connect 229 0 158 0;
#X connect 230 0 159 0;
#X connect 231 0 160 0;
#X connect 232 0 161 0;
#X connect 233 0 162 0;
#X connect 234 0 198 0;
#X connect 234 1 199 0;
#X connect 234 2 200 0;
#X connect 234 3 201 0;
#X connect 234 4 235 0;
#X connect 234 5 236 0;
#X connect 234 6 237 0;
#X connect 234 7 238 0;
#X connect 235 0 91 3;
#X connect 235 0 206 0;
#X connect 235 0 230 0;
#X connect 235 0 222 0;
#X connect 235 0 214 0;
#X connect 236 0 91 2;
#X connect 236 0 207 0;
#X connect 236 0 231 0;
#X connect 236 0 223 0;
#X connect 236 0 215 0;
#X connect 237 0 91 1;
#X connect 237 0 208 0;
#X connect 237 0 232 0;
#X connect 237 0 224 0;
#X connect 237 0 216 0;
#X connect 238 0 91 0;
#X connect 238 0 209 0;
#X connect 238 0 233 0;
#X connect 238 0 225 0;
#X connect 238 0 217 0;
#X connect 239 0 197 0;
#X connect 240 0 197 0;
#X connect 241 0 197 0;
#X connect 242 0 197 0;
