#N canvas -165 161 1920 1026 10;
#X obj 1685 692 dac~ 1 2;
#X obj 1153 476 bng 15 250 50 0 empty empty empty 17 7 0 10 #fcfcfc
#000000 #000000;
#X obj 1153 498 f;
#X obj 1187 499 + 1;
#X floatatom 1208 428 5 0 0 0 - - - 0;
#X obj 1454 411 tgl 15 0 empty empty empty 17 7 0 10 #fcfcfc #000000
#000000 0 1;
#X obj 1479 408 tgl 15 0 empty empty empty 17 7 0 10 #fcfcfc #000000
#000000 0 1;
#X obj 1153 428 loadbang;
#X obj 1510 409 tgl 15 0 empty empty empty 17 7 0 10 #fcfcfc #000000
#000000 0 1;
#X obj 1494 407 tgl 15 0 empty empty empty 17 7 0 10 #fcfcfc #000000
#000000 0 1;
#X obj 1526 409 tgl 15 0 empty empty empty 17 7 0 10 #fcfcfc #000000
#000000 0 1;
#X obj 1558 408 tgl 15 0 empty empty empty 17 7 0 10 #fcfcfc #000000
#000000 0 1;
#X obj 1574 408 tgl 15 0 empty empty empty 17 7 0 10 #fcfcfc #000000
#000000 0 1;
#X obj 1543 408 tgl 15 0 empty empty empty 17 7 0 10 #fcfcfc #000000
#000000 0 1;
#X obj 1459 386 tgl 15 0 empty empty empty 17 7 0 10 #fcfcfc #000000
#000000 0 1;
#X obj 1477 385 tgl 15 0 empty empty empty 17 7 0 10 #fcfcfc #000000
#000000 0 1;
#X obj 1513 385 tgl 15 0 empty empty empty 17 7 0 10 #fcfcfc #000000
#000000 0 1;
#X obj 1495 385 tgl 15 0 empty empty empty 17 7 0 10 #fcfcfc #000000
#000000 0 1;
#X obj 1530 385 tgl 15 0 empty empty empty 17 7 0 10 #fcfcfc #000000
#000000 0 1;
#X obj 1561 385 tgl 15 0 empty empty empty 17 7 0 10 #fcfcfc #000000
#000000 0 1;
#X obj 1577 385 tgl 15 0 empty empty empty 17 7 0 10 #fcfcfc #000000
#000000 0 1;
#X obj 1548 385 tgl 15 0 empty empty empty 17 7 0 10 #fcfcfc #000000
#000000 0 1;
#X obj 1838 381 tgl 15 0 empty empty empty 17 7 0 10 #fcfcfc #000000
#000000 0 1;
#X obj 1854 381 tgl 15 0 empty empty empty 17 7 0 10 #fcfcfc #000000
#000000 0 1;
#X obj 1888 381 tgl 15 0 empty empty empty 17 7 0 10 #fcfcfc #000000
#000000 0 1;
#X obj 1871 381 tgl 15 0 empty empty empty 17 7 0 10 #fcfcfc #000000
#000000 0 1;
#X obj 1905 381 tgl 15 0 empty empty empty 17 7 0 10 #fcfcfc #000000
#000000 0 1;
#X obj 1936 381 tgl 15 0 empty empty empty 17 7 0 10 #fcfcfc #000000
#000000 0 1;
#X obj 1952 381 tgl 15 0 empty empty empty 17 7 0 10 #fcfcfc #000000
#000000 0 1;
#X obj 1921 381 tgl 15 0 empty empty empty 17 7 0 10 #fcfcfc #000000
#000000 0 1;
#X obj 1836 405 tgl 15 0 empty empty empty 17 7 0 10 #fcfcfc #000000
#000000 0 1;
#X obj 1852 405 tgl 15 0 empty empty empty 17 7 0 10 #fcfcfc #000000
#000000 0 1;
#X obj 1885 405 tgl 15 0 empty empty empty 17 7 0 10 #fcfcfc #000000
#000000 0 1;
#X obj 1868 405 tgl 15 0 empty empty empty 17 7 0 10 #fcfcfc #000000
#000000 0 1;
#X obj 1903 405 tgl 15 0 empty empty empty 17 7 0 10 #fcfcfc #000000
#000000 0 1;
#X obj 1934 405 tgl 15 0 empty empty empty 17 7 0 10 #fcfcfc #000000
#000000 0 1;
#X obj 1950 405 tgl 15 0 empty empty empty 17 7 0 10 #fcfcfc #000000
#000000 0 1;
#X obj 1921 405 tgl 15 0 empty empty empty 17 7 0 10 #fcfcfc #000000
#000000 0 1;
#X obj 1153 452 metro 700;
#N canvas -8 0 958 1016 sequencer 0;
#X obj 254 184 select 0 1 2 3 4 5 6 7;
#X obj 302 208 bng 15 250 50 0 empty empty empty 17 7 0 10 #fcfcfc
#000000 #000000;
#X obj 271 207 bng 15 250 50 0 empty empty empty 17 7 0 10 #fcfcfc
#000000 #000000;
#X obj 286 208 bng 15 250 50 0 empty empty empty 17 7 0 10 #fcfcfc
#000000 #000000;
#X obj 256 207 bng 15 250 50 0 empty empty empty 17 7 0 10 #fcfcfc
#000000 #000000;
#X obj 317 208 bng 15 250 50 0 empty empty empty 17 7 0 10 #fcfcfc
#000000 #000000;
#X obj 332 209 bng 15 250 50 0 empty empty empty 17 7 0 10 #fcfcfc
#000000 #000000;
#X obj 348 209 bng 15 250 50 0 empty empty empty 17 7 0 10 #fcfcfc
#000000 #000000;
#X obj 541 252 spigot;
#X obj 286 257 spigot;
#X obj 300 376 readsf~;
#X obj 364 211 bng 15 250 50 0 empty empty empty 17 7 0 10 #fcfcfc
#000000 #000000;
#X obj 369 254 spigot;
#X obj 328 255 spigot;
#X obj 415 254 spigot;
#X obj 500 253 spigot;
#X obj 457 254 spigot;
#X obj 406 382 readsf~;
#X obj 584 386 readsf~;
#X obj 244 299 spigot;
#X obj 541 277 spigot;
#X obj 289 280 spigot;
#X obj 373 279 spigot;
#X obj 331 280 spigot;
#X obj 415 279 spigot;
#X obj 500 278 spigot;
#X obj 457 279 spigot;
#X obj 244 256 spigot;
#X obj 900 212 spigot;
#X obj 648 215 spigot;
#X obj 730 215 spigot;
#X obj 691 214 spigot;
#X obj 773 216 spigot;
#X obj 859 213 spigot;
#X obj 816 214 spigot;
#X obj 602 241 spigot;
#X obj 900 237 spigot;
#X obj 648 240 spigot;
#X obj 736 239 spigot;
#X obj 691 239 spigot;
#X obj 774 239 spigot;
#X obj 859 238 spigot;
#X obj 816 239 spigot;
#X obj 602 216 spigot;
#X msg 584 364 open rim.wav \, 1;
#X obj 701 383 readsf~;
#X msg 701 361 open kick.wav \, 1;
#X obj 250 135 inlet;
#X obj 363 132 inlet;
#X obj 401 132 inlet;
#X obj 441 132 inlet;
#X obj 323 132 inlet;
#X obj 405 408 outlet~;
#X obj 300 403 outlet~;
#X obj 700 414 outlet~;
#X obj 584 411 outlet~;
#X obj 480 131 inlet;
#X obj 518 131 inlet;
#X obj 555 131 inlet;
#X obj 594 131 inlet;
#X obj 680 131 inlet;
#X obj 718 131 inlet;
#X obj 758 131 inlet;
#X obj 640 131 inlet;
#X obj 797 130 inlet;
#X obj 835 130 inlet;
#X obj 872 130 inlet;
#X obj 911 130 inlet;
#X msg 300 354 open C4.wav \, 1;
#X msg 406 354 open E4.wav \, 1;
#X obj 997 130 inlet;
#X obj 1035 130 inlet;
#X obj 1075 130 inlet;
#X obj 957 130 inlet;
#X obj 1114 129 inlet;
#X obj 1152 129 inlet;
#X obj 1189 129 inlet;
#X obj 1228 129 inlet;
#X obj 1310 129 inlet;
#X obj 1348 129 inlet;
#X obj 1388 129 inlet;
#X obj 1270 129 inlet;
#X obj 1427 128 inlet;
#X obj 1465 128 inlet;
#X obj 1502 128 inlet;
#X obj 1541 128 inlet;
#X obj 197 323 s bang;
#X connect 0 0 4 0;
#X connect 0 1 2 0;
#X connect 0 2 3 0;
#X connect 0 3 1 0;
#X connect 0 4 5 0;
#X connect 0 5 6 0;
#X connect 0 6 7 0;
#X connect 0 7 11 0;
#X connect 1 0 12 0;
#X connect 1 0 22 0;
#X connect 1 0 30 0;
#X connect 1 0 38 0;
#X connect 2 0 9 0;
#X connect 2 0 21 0;
#X connect 2 0 29 0;
#X connect 2 0 37 0;
#X connect 3 0 13 0;
#X connect 3 0 23 0;
#X connect 3 0 31 0;
#X connect 3 0 39 0;
#X connect 4 0 19 0;
#X connect 4 0 27 0;
#X connect 4 0 43 0;
#X connect 4 0 35 0;
#X connect 5 0 14 0;
#X connect 5 0 24 0;
#X connect 5 0 32 0;
#X connect 5 0 40 0;
#X connect 6 0 16 0;
#X connect 6 0 26 0;
#X connect 6 0 34 0;
#X connect 6 0 42 0;
#X connect 7 0 15 0;
#X connect 7 0 25 0;
#X connect 7 0 33 0;
#X connect 7 0 41 0;
#X connect 8 0 68 0;
#X connect 9 0 68 0;
#X connect 10 0 53 0;
#X connect 11 0 8 0;
#X connect 11 0 20 0;
#X connect 11 0 28 0;
#X connect 11 0 36 0;
#X connect 12 0 68 0;
#X connect 13 0 68 0;
#X connect 14 0 68 0;
#X connect 15 0 68 0;
#X connect 16 0 68 0;
#X connect 17 0 52 0;
#X connect 18 0 55 0;
#X connect 19 0 69 0;
#X connect 20 0 69 0;
#X connect 21 0 69 0;
#X connect 22 0 69 0;
#X connect 23 0 69 0;
#X connect 24 0 69 0;
#X connect 25 0 69 0;
#X connect 26 0 69 0;
#X connect 27 0 68 0;
#X connect 27 0 86 0;
#X connect 28 0 44 0;
#X connect 29 0 44 0;
#X connect 30 0 44 0;
#X connect 31 0 44 0;
#X connect 32 0 44 0;
#X connect 33 0 44 0;
#X connect 34 0 44 0;
#X connect 35 0 46 0;
#X connect 36 0 46 0;
#X connect 37 0 46 0;
#X connect 38 0 46 0;
#X connect 39 0 46 0;
#X connect 40 0 46 0;
#X connect 41 0 46 0;
#X connect 42 0 46 0;
#X connect 43 0 44 0;
#X connect 44 0 18 0;
#X connect 45 0 54 0;
#X connect 46 0 45 0;
#X connect 47 0 0 0;
#X connect 48 0 9 1;
#X connect 49 0 13 1;
#X connect 50 0 12 1;
#X connect 51 0 27 1;
#X connect 56 0 14 1;
#X connect 57 0 16 1;
#X connect 58 0 15 1;
#X connect 59 0 8 1;
#X connect 60 0 21 1;
#X connect 61 0 23 1;
#X connect 62 0 22 1;
#X connect 63 0 19 1;
#X connect 64 0 24 1;
#X connect 65 0 26 1;
#X connect 66 0 25 1;
#X connect 67 0 20 1;
#X connect 68 0 10 0;
#X connect 69 0 17 0;
#X connect 70 0 29 1;
#X connect 71 0 31 1;
#X connect 72 0 30 1;
#X connect 73 0 43 1;
#X connect 74 0 32 1;
#X connect 75 0 34 1;
#X connect 76 0 33 1;
#X connect 77 0 28 1;
#X connect 78 0 37 1;
#X connect 79 0 39 1;
#X connect 80 0 38 1;
#X connect 81 0 35 1;
#X connect 82 0 40 1;
#X connect 83 0 42 1;
#X connect 84 0 41 1;
#X connect 85 0 36 1;
#X restore 1230 540 pd sequencer;
#X f 192;
#X text 1439 408 C4;
#X text 1434 383 D4;
#X text 1802 407 KD;
#X text 1803 380 SN;
#X obj 1075 798 loadbang;
#X obj 1076 845 s bela_setDigital;
#X obj 1184 711 r bang;
#X msg 1075 823 out 17;
#X obj 1184 801 s bela_digitalOut17;
#X obj 1184 777 tgl 15 0 empty empty empty 17 7 0 10 #fcfcfc #000000
#000000 0 1;
#X obj 1242 750 bng 15 250 50 0 empty empty empty 17 7 0 10 #fcfcfc
#000000 #000000;
#X obj 1432 783 print bang;
#X obj 1242 726 delay 500;
#X obj 145 158 loadbang;
#X obj 145 188 tgl 15 0 empty empty empty 17 7 0 10 #fcfcfc #000000
#000000 0 1;
#X obj 145 213 metro 200;
#X obj 145 294 tabread bela_multiplexer;
#X msg 145 275 0;
#X obj 160 344 tabread bela_multiplexer;
#N canvas 0 22 450 278 (subpatch) 0;
#X array bela_multiplexer 1 float 2;
#X coords 0 1 1 -1 200 140 1 0 0;
#X restore 250 87 graph;
#X obj 145 246 t a a a a a a a a a a a a a a a a;
#X obj 171 394 tabread bela_multiplexer;
#X obj 185 450 tabread bela_multiplexer;
#X obj 196 504 tabread bela_multiplexer;
#X obj 209 556 tabread bela_multiplexer;
#X obj 225 609 tabread bela_multiplexer;
#X obj 236 669 tabread bela_multiplexer;
#X msg 209 533 9;
#X msg 160 321 8;
#X msg 171 371 16;
#X msg 196 481 1;
#X msg 225 586 17;
#X msg 185 427 24;
#X msg 236 646 25;
#X obj 423 399 expr if( $f1>0.15 == $f1<0.17 \, 1 \, 0);
#X obj 422 455 expr if( $f1>0.15 == $f1<0.17 \, 1 \, 0);
#X obj 422 559 expr if( $f1>0.15 == $f1<0.17 \, 1 \, 0);
#X obj 422 608 expr if( $f1>0.15 == $f1<0.17 \, 1 \, 0);
#X obj 416 668 expr if( $f1>0.15 == $f1<0.17 \, 1 \, 0);
#X obj 667 400 expr if( $f1>0.3 == $f1<0.32 \, 1 \, 0);
#X obj 666 455 expr if( $f1>0.3 == $f1<0.32 \, 1 \, 0);
#X obj 663 557 expr if( $f1>0.3 == $f1<0.32 \, 1 \, 0);
#X obj 662 607 expr if( $f1>0.3 == $f1<0.32 \, 1 \, 0);
#X obj 656 668 expr if( $f1>0.3 == $f1<0.32 \, 1 \, 0);
#X obj 1153 527 % 8;
#X obj 247 736 tabread bela_multiplexer;
#X msg 247 713 2;
#X obj 265 799 tabread bela_multiplexer;
#X msg 265 769 10;
#X obj 276 851 tabread bela_multiplexer;
#X msg 276 828 18;
#X obj 295 914 tabread bela_multiplexer;
#X msg 295 891 26;
#X obj 305 964 tabread bela_multiplexer;
#X obj 319 1020 tabread bela_multiplexer;
#X obj 329 1079 tabread bela_multiplexer;
#X obj 343 1142 tabread bela_multiplexer;
#X msg 305 941 3;
#X msg 319 997 11;
#X msg 329 1056 19;
#X msg 343 1118 27;
#X obj 502 811 expr if( $f1>0.15 == $f1<0.17 \, 1 \, 0);
#X obj 500 871 expr if( $f1>0.15 == $f1<0.17 \, 1 \, 0);
#X obj 497 927 expr if( $f1>0.15 == $f1<0.17 \, 1 \, 0);
#X obj 502 1033 expr if( $f1>0.15 == $f1<0.17 \, 1 \, 0);
#X obj 517 1083 expr if( $f1>0.15 == $f1<0.17 \, 1 \, 0);
#X obj 509 1124 expr if( $f1>0.15 == $f1<0.17 \, 1 \, 0);
#X obj 735 753 expr if( $f1>0.3 == $f1<0.32 \, 1 \, 0);
#X obj 742 809 expr if( $f1>0.3 == $f1<0.32 \, 1 \, 0);
#X obj 741 869 expr if( $f1>0.3 == $f1<0.32 \, 1 \, 0);
#X obj 741 926 expr if( $f1>0.3 == $f1<0.32 \, 1 \, 0);
#X obj 746 985 expr if( $f1>0.3 == $f1<0.32 \, 1 \, 0);
#X obj 745 1035 expr if( $f1>0.3 == $f1<0.32 \, 1 \, 0);
#X obj 735 1082 expr if( $f1>0.3 == $f1<0.32 \, 1 \, 0);
#X obj 734 1126 expr if( $f1>0.3 == $f1<0.32 \, 1 \, 0);
#X obj 24 482 print -n;
#X obj 656 688 s sn1;
#X obj 1838 195 r sn1;
#X obj 1459 192 r pd1;
#X obj 662 632 s sn2;
#X obj 417 688 s pd1;
#X obj 422 632 s pd2;
#X obj 423 584 s pd3;
#X obj 663 584 s sn3;
#X obj 1477 215 r pd2;
#X obj 1854 216 r sn2;
#X obj 1495 236 r pd3;
#X obj 1871 235 r sn3;
#X obj 420 508 expr if( $f1>0.15 == $f1<0.17 \, 1 \, 0);
#X obj 662 506 expr if( $f1>0.3 == $f1<0.32 \, 1 \, 0);
#X obj 421 533 s pd4;
#X obj 661 533 s sn4;
#X obj 1513 256 r pd4, f 7;
#X obj 1888 256 r sn4;
#X obj 1679 116 pack f f f f f f f f;
#X obj 1670 141 print -n;
#X obj 422 479 s pd5;
#X obj 665 481 s sn5;
#X obj 1530 280 r pd5, f 7;
#X obj 1905 276 r sn5;
#X obj 423 422 s pd6;
#X obj 666 427 s sn6;
#X obj 1548 305 r pd6, f 7;
#X obj 1921 298 r sn6;
#X obj 422 356 expr if( $f1>0.15 == $f1<0.17 \, 1 \, 0);
#X obj 654 354 expr if( $f1>0.3 == $f1<0.32 \, 1 \, 0);
#X obj 422 378 s pd7;
#X obj 654 377 s sn7;
#X obj 425 313 expr if( $f1>0.15 == $f1<0.17 \, 1 \, 0);
#X obj 657 311 expr if( $f1>0.3 == $f1<0.32 \, 1 \, 0);
#X obj 425 335 s pd8;
#X obj 657 334 s sn8;
#X obj 1561 327 r pd7, f 7;
#X obj 1578 348 r pd8, f 7;
#X obj 1936 323 r sn7;
#X obj 1951 343 r sn8;
#X obj 31 445 pack f f;
#X obj 77 1039 pack f f f f f f f f;
#X obj 75 1068 print -n;
#X obj 502 782 s pc1;
#X obj 735 780 s dk1;
#X obj 1454 69 r pc1;
#X obj 1837 65 r dk1;
#X obj 1479 92 r pc2;
#X obj 1852 87 r dk2;
#X obj 502 836 s pc2;
#X obj 743 834 s dk2;
#X obj 499 897 s pc3;
#X obj 740 895 s dk3;
#X obj 1494 115 r pc3;
#X obj 1871 116 r dk3;
#X obj 497 953 s pc4;
#X obj 741 951 s dk4;
#X obj 1511 138 r pc4;
#X obj 1887 143 r dk4, f 6;
#X obj 501 750 expr if( $f1>0.15 == $f1<0.17 \, 1 \, 0);
#X obj 502 1011 s pc5;
#X obj 746 1009 s dk5;
#X obj 502 1059 s pc6;
#X obj 746 1057 s dk6;
#X obj 516 1104 s pc7;
#X obj 760 1102 s dk7;
#X obj 510 1148 s pc8;
#X obj 753 1143 s dk8;
#X obj 1528 161 r pc5;
#X obj 1549 182 r pc6;
#X obj 1565 208 r pc7;
#X obj 1581 228 r pc8;
#X obj 1907 172 r dk5, f 6;
#X obj 1925 197 r dk6;
#X obj 1936 229 r dk7;
#X obj 1953 261 r dk8;
#X obj 500 980 expr if( $f1>0.15 == $f1<0.17 \, 1 \, 0);
#X connect 1 0 2 0;
#X connect 2 0 3 0;
#X connect 2 0 84 0;
#X connect 3 0 2 1;
#X connect 4 0 38 1;
#X connect 5 0 39 1;
#X connect 6 0 39 2;
#X connect 7 0 38 0;
#X connect 8 0 39 4;
#X connect 9 0 39 3;
#X connect 10 0 39 5;
#X connect 11 0 39 7;
#X connect 12 0 39 8;
#X connect 13 0 39 6;
#X connect 14 0 39 9;
#X connect 15 0 39 10;
#X connect 16 0 39 12;
#X connect 17 0 39 11;
#X connect 18 0 39 13;
#X connect 19 0 39 15;
#X connect 20 0 39 16;
#X connect 21 0 39 14;
#X connect 22 0 39 17;
#X connect 23 0 39 18;
#X connect 24 0 39 20;
#X connect 25 0 39 19;
#X connect 26 0 39 21;
#X connect 27 0 39 23;
#X connect 28 0 39 24;
#X connect 29 0 39 22;
#X connect 30 0 39 25;
#X connect 31 0 39 26;
#X connect 32 0 39 28;
#X connect 33 0 39 27;
#X connect 34 0 39 29;
#X connect 35 0 39 31;
#X connect 36 0 39 32;
#X connect 37 0 39 30;
#X connect 38 0 1 0;
#X connect 39 0 0 0;
#X connect 39 0 0 1;
#X connect 39 1 0 0;
#X connect 39 1 0 1;
#X connect 39 2 0 0;
#X connect 39 2 0 1;
#X connect 39 3 0 0;
#X connect 39 3 0 1;
#X connect 44 0 47 0;
#X connect 46 0 49 0;
#X connect 46 0 52 0;
#X connect 47 0 45 0;
#X connect 49 0 48 0;
#X connect 49 0 51 0;
#X connect 50 0 49 0;
#X connect 52 0 50 0;
#X connect 53 0 54 0;
#X connect 54 0 55 0;
#X connect 55 0 60 0;
#X connect 56 0 148 0;
#X connect 56 0 149 0;
#X connect 57 0 56 0;
#X connect 58 0 144 0;
#X connect 58 0 145 0;
#X connect 60 0 57 0;
#X connect 60 1 68 0;
#X connect 60 2 69 0;
#X connect 60 3 72 0;
#X connect 60 4 70 0;
#X connect 60 5 67 0;
#X connect 60 6 71 0;
#X connect 60 7 73 0;
#X connect 60 8 86 0;
#X connect 60 9 88 0;
#X connect 60 10 90 0;
#X connect 60 11 92 0;
#X connect 60 12 97 0;
#X connect 60 13 98 0;
#X connect 60 14 99 0;
#X connect 60 15 100 0;
#X connect 61 0 74 0;
#X connect 61 0 79 0;
#X connect 62 0 75 0;
#X connect 62 0 80 0;
#X connect 63 0 128 0;
#X connect 63 0 129 0;
#X connect 64 0 76 0;
#X connect 64 0 81 0;
#X connect 65 0 77 0;
#X connect 65 0 82 0;
#X connect 66 0 78 0;
#X connect 66 0 83 0;
#X connect 67 0 64 0;
#X connect 68 0 58 0;
#X connect 69 0 61 0;
#X connect 70 0 63 0;
#X connect 71 0 65 0;
#X connect 72 0 62 0;
#X connect 73 0 66 0;
#X connect 74 0 140 0;
#X connect 75 0 136 0;
#X connect 76 0 122 0;
#X connect 77 0 121 0;
#X connect 78 0 120 0;
#X connect 79 0 141 0;
#X connect 80 0 137 0;
#X connect 81 0 123 0;
#X connect 82 0 119 0;
#X connect 83 0 116 0;
#X connect 84 0 39 0;
#X connect 85 0 107 0;
#X connect 85 0 157 0;
#X connect 85 0 175 0;
#X connect 86 0 85 0;
#X connect 87 0 101 0;
#X connect 87 0 108 0;
#X connect 87 0 157 1;
#X connect 88 0 87 0;
#X connect 89 0 102 0;
#X connect 89 0 109 0;
#X connect 89 0 157 2;
#X connect 90 0 89 0;
#X connect 91 0 103 0;
#X connect 91 0 110 0;
#X connect 91 0 157 3;
#X connect 92 0 91 0;
#X connect 93 0 111 0;
#X connect 93 0 157 4;
#X connect 93 0 192 0;
#X connect 94 0 104 0;
#X connect 94 0 112 0;
#X connect 94 0 157 5;
#X connect 95 0 105 0;
#X connect 95 0 113 0;
#X connect 95 0 157 6;
#X connect 96 0 106 0;
#X connect 96 0 114 0;
#X connect 96 0 157 7;
#X connect 97 0 93 0;
#X connect 98 0 94 0;
#X connect 99 0 95 0;
#X connect 100 0 96 0;
#X connect 101 0 165 0;
#X connect 102 0 167 0;
#X connect 103 0 171 0;
#X connect 104 0 178 0;
#X connect 105 0 180 0;
#X connect 106 0 182 0;
#X connect 107 0 160 0;
#X connect 108 0 166 0;
#X connect 109 0 168 0;
#X connect 110 0 172 0;
#X connect 111 0 177 0;
#X connect 112 0 179 0;
#X connect 113 0 181 0;
#X connect 114 0 183 0;
#X connect 117 0 22 0;
#X connect 118 0 14 0;
#X connect 124 0 15 0;
#X connect 125 0 23 0;
#X connect 126 0 17 0;
#X connect 127 0 25 0;
#X connect 128 0 130 0;
#X connect 129 0 131 0;
#X connect 132 0 16 0;
#X connect 133 0 24 0;
#X connect 134 0 135 0;
#X connect 138 0 18 0;
#X connect 139 0 26 0;
#X connect 142 0 21 0;
#X connect 143 0 29 0;
#X connect 144 0 146 0;
#X connect 145 0 147 0;
#X connect 148 0 150 0;
#X connect 149 0 151 0;
#X connect 152 0 19 0;
#X connect 153 0 20 0;
#X connect 154 0 27 0;
#X connect 155 0 28 0;
#X connect 156 0 115 0;
#X connect 157 0 158 0;
#X connect 161 0 5 0;
#X connect 162 0 30 0;
#X connect 163 0 6 0;
#X connect 164 0 31 0;
#X connect 169 0 9 0;
#X connect 170 0 33 0;
#X connect 173 0 8 0;
#X connect 174 0 32 0;
#X connect 175 0 159 0;
#X connect 184 0 10 0;
#X connect 185 0 13 0;
#X connect 186 0 11 0;
#X connect 187 0 12 0;
#X connect 188 0 34 0;
#X connect 189 0 37 0;
#X connect 190 0 35 0;
#X connect 191 0 36 0;
#X connect 192 0 176 0;
